<svg width="0" height="0" class="hidden">
  <symbol fill="none" xmlns="http://www.w3.org/2000/svg" viewBox="0 0 14 14" id="icon-ability">
    <path d="M5.93519 11.8537V10.6733C4.93377 10.6733 4.69513 10.2642 4.69513 9.37784V7.98011C4.69513 7.31534 4.43093 6.75284 3.28036 6.52273V6.3608C4.43093 6.13068 4.69513 5.56392 4.69513 4.89915V3.50142C4.69513 2.61932 4.93377 2.21023 5.93519 2.21023V1.02557C4.23065 1.02557 3.22923 1.45597 3.22923 3.37784V4.46449C3.22923 5.35938 2.89684 5.72585 1.92951 5.72585V7.15767C2.89684 7.15767 3.22923 7.52415 3.22923 8.41903V9.50142C3.22923 11.4233 4.23065 11.8537 5.93519 11.8537ZM8.06374 1.02983V2.21023C9.06516 2.21023 9.3038 2.61932 9.3038 3.50568V4.90341C9.3038 5.56818 9.568 6.13068 10.7186 6.3608V6.52273C9.568 6.75284 9.3038 7.3196 9.3038 7.98438V9.3821C9.3038 10.2642 9.06516 10.6733 8.06374 10.6733V11.858C9.76829 11.858 10.7697 11.4276 10.7697 9.50568V8.41903C10.7697 7.52415 11.1021 7.15767 12.0694 7.15767V5.72585C11.1021 5.72585 10.7697 5.35938 10.7697 4.46449V3.3821C10.7697 1.46023 9.76829 1.02983 8.06374 1.02983Z" fill="currentColor"/>
  </symbol>
  <symbol fill="none" xmlns="http://www.w3.org/2000/svg" viewBox="0 0 14 14" id="icon-caret-down">
    <path d="M3.363 4.182l3.636 6.182 3.636-6.182H3.363z" fill="currentColor"></path>
  </symbol>
  <symbol fill="none" xmlns="http://www.w3.org/2000/svg" viewBox="0 0 14 14" id="icon-caret-left">
    <path d="M9.908 10.727V3.455L3.726 7.09l6.182 3.636z" fill="currentColor"></path>
  </symbol>
  <symbol fill="none" xmlns="http://www.w3.org/2000/svg" viewBox="0 0 14 14" id="icon-caret-right">
    <path d="M4.09 10.727l6.182-3.636L4.09 3.455v7.272z" fill="currentColor"></path>
  </symbol>
  <symbol fill="none" xmlns="http://www.w3.org/2000/svg" viewBox="0 0 14 14" id="icon-caret-up">
    <path d="M3.363 10h7.272L7 3.818 3.363 10z" fill="currentColor"></path>
  </symbol>
  <symbol fill="none" xmlns="http://www.w3.org/2000/svg" viewBox="0 0 14 14" id="icon-checkmark">
    <path d="M2.29066 7.51562L5.77575 10.9759L12.0847 4.69176L11.1003 3.70241L5.77575 9.0071L3.26012 6.52628L2.29066 7.51562Z" fill="currentColor"/>
  </symbol>
  <symbol fill="none" xmlns="http://www.w3.org/2000/svg" viewBox="0 0 14 14" id="icon-test">
    <path d="M2.345 7.406l3.381 3.361 6.205-6.185-.776-.775-5.429 5.409L3.101 6.63l-.756.775z" fill="currentColor"></path>
  </symbol>
  <symbol fill="none" xmlns="http://www.w3.org/2000/svg" viewBox="0 0 14 14" id="icon-chevron-down">
    <path d="M10.324 5.449l-3.32 3.31-3.322-3.31-.756.756 4.077 4.076 4.077-4.076-.756-.756z" fill="currentColor"></path>
  </symbol>
  <symbol fill="none" xmlns="http://www.w3.org/2000/svg" viewBox="0 0 14 14" id="icon-chevron-up">
    <path d="M3.676 8.551l3.32-3.31 3.322 3.31.756-.756L6.997 3.72 2.92 7.795l.756.756z" fill="currentColor"></path>
  </symbol>
  <symbol fill="none" xmlns="http://www.w3.org/2000/svg" viewBox="0 0 14 14" id="icon-folder">
    <path d="M.5 3V2a.5.5 0 01.5-.5h4a.5.5 0 01.4.2l.9 1.2.4-.3-.4.3a1.5 1.5 0 001.2.6H13a.5.5 0 01.5.5v8a.5.5 0 01-.5.5H1a.5.5 0 01-.5-.5V3z" stroke="currentColor"></path>
  </symbol>
  <symbol fill="none" xmlns="http://www.w3.org/2000/svg" viewBox="0 0 14 14" id="icon-doc">
    <path d="M2 4h2a1 1 0 001-1V1m5.842 1v10a1 1 0 01-1 1H3a1 1 0 01-1-1V3.914a1 1 0 01.293-.707l1.914-1.914A1 1 0 014.914 1h4.928a1 1 0 011 1z" stroke="currentColor"></path>
  </symbol>
  <symbol fill="none" xmlns="http://www.w3.org/2000/svg" viewBox="0 0 14 14" id="icon-term">
    <path d="M9.1123 4.82715V3.60352H7.68359V3.00879C7.68359 2.77637 7.71322 2.57129 7.77246 2.39355C7.83626 2.21582 7.93424 2.06543 8.06641 1.94238C8.19857 1.81478 8.36947 1.71908 8.5791 1.65527C8.79329 1.58691 9.04167 1.55046 9.32422 1.5459C9.51562 1.5459 9.6888 1.56413 9.84375 1.60059C10.0033 1.63704 10.1445 1.68717 10.2676 1.75098L10.4316 0.472656C10.2038 0.395182 9.98503 0.33138 9.77539 0.28125C9.56576 0.226562 9.34701 0.199219 9.11914 0.199219C8.64518 0.199219 8.21908 0.260742 7.84082 0.383789C7.46257 0.506836 7.14128 0.68457 6.87695 0.916992C6.60807 1.15397 6.40299 1.44792 6.26172 1.79883C6.12044 2.14974 6.0498 2.55306 6.0498 3.00879V3.60352H4.90137V4.82715H6.0498V11.1982C6.0498 11.4717 6.0179 11.7109 5.9541 11.916C5.8903 12.1211 5.79232 12.2852 5.66016 12.4082C5.57357 12.4857 5.46875 12.5472 5.3457 12.5928C5.22266 12.6383 5.08366 12.6611 4.92871 12.6611C4.82389 12.6611 4.65983 12.6406 4.43652 12.5996C4.21322 12.5632 4.04915 12.5085 3.94434 12.4355L3.8418 13.7344C4.04232 13.8301 4.24284 13.8962 4.44336 13.9326C4.64388 13.9691 4.84668 13.9873 5.05176 13.9873C5.46647 13.9873 5.83561 13.9258 6.15918 13.8027C6.4873 13.6842 6.7653 13.5065 6.99316 13.2695C7.21647 13.0326 7.38737 12.7409 7.50586 12.3945C7.62435 12.0482 7.68359 11.6494 7.68359 11.1982V4.82715H9.1123Z" fill="currentColor"/>
  </symbol>
  <symbol fill="none" xmlns="http://www.w3.org/2000/svg" viewBox="0 0 14 14" id="icon-hash">
    <path d="M7.629 9.197L7.082 12h.978l.546-2.803h1.723v-.936H8.784l.472-2.42h1.586v-.95H9.44l.561-2.844h-.978l-.56 2.844H6.658l.56-2.844h-.977l-.56 2.844H3.732v.95h1.764l-.472 2.42H3.213v.936h1.634L4.3 12h.977l.547-2.803H7.63zm-1.627-.936l.472-2.42h1.804l-.471 2.42H6.002z" fill="currentColor"></path>
  </symbol>
  <symbol fill="none" xmlns="http://www.w3.org/2000/svg" viewBox="0 0 14 14" id="icon-plus">
    <path d="M6.443 11.304h1.113V8.58h2.725V7.466H7.556V4.74H6.443v2.725H3.718V8.58h2.725v2.724z" fill="currentColor"></path>
  </symbol>
  <symbol fill="none" xmlns="http://www.w3.org/2000/svg" viewBox="0 0 14 14" id="icon-search">
    <path d="M13 12.815L8.983 8.798m1.486-3.064a4.734 4.734 0 11-9.469 0 4.734 4.734 0 019.469 0z" stroke="currentColor"></path>
  </symbol>
  <symbol fill="none" xmlns="http://www.w3.org/2000/svg" viewBox="0 0 14 14" id="icon-type">
    <path d="M3.26571 9.85227L6.2089 6.90909L3.26571 4.00568L0.322532 6.90909L3.26571 9.85227ZM7.04412 13.5909L9.94753 10.6875L7.04412 7.74432L4.10094 10.6875L7.04412 13.5909ZM7.04412 6.07386L9.94753 3.17045L7.04412 0.227272L4.10094 3.17045L7.04412 6.07386ZM10.7828 9.85227L13.6862 6.90909L10.7828 4.00568L7.87935 6.90909L10.7828 9.85227ZM3.26571 8.35085L1.83887 6.90909L3.26571 5.48722L4.69753 6.90909L3.26571 8.35085ZM10.7828 8.35085L9.35094 6.90909L10.7828 5.48722L12.2046 6.90909L10.7828 8.35085ZM7.04412 4.57244L5.61728 3.17045L7.04412 1.72869L8.44114 3.17045L7.04412 4.57244ZM7.04412 12.0895L5.61728 10.6875L7.04412 9.26562L8.44114 10.6875L7.04412 12.0895Z" fill="currentColor"/>
  </symbol>
  <symbol fill="none" xmlns="http://www.w3.org/2000/svg" viewBox="0 0 14 14" id="icon-warn">
    <path d="M2.183 11h9.631L6.999 2.818 2.183 11zm4.382-3.04l-.063-2.415h.994L7.432 7.96h-.867zM7 10.084a.66.66 0 11.66-.66.66.66 0 01-.66.66z" fill="currentColor"></path>
  </symbol>
  <symbol fill="none" xmlns="http://www.w3.org/2000/svg" viewBox="0 0 14 14" id="icon-x">
    <path d="M2 2l10 10M2 12L12 2" stroke="currentColor" stroke-width="1.5"></path>
  </symbol>
  <symbol fill="none" xmlns="http://www.w3.org/2000/svg" viewBox="0 0 14 14" id="icon-patch">
    <path d="M4.12358 7.7358H10.6349L8.07386 10.2884L8.83239 11.0554L12.706 7.18182L8.83239 3.30824L8.07386 4.06676L10.6349 6.62784H4.12358C3.15199 6.62784 2.36364 5.83949 2.36364 4.86364C2.36364 3.89631 3.15625 3.10369 4.12358 3.10369H4.60085V2H4.12358C2.54261 2 1.25994 3.28267 1.25994 4.86364C1.25994 6.4446 2.54261 7.7358 4.12358 7.7358Z" fill="currentColor"/>
  </symbol>
  <symbol fill="none" xmlns="http://www.w3.org/2000/svg" viewBox="0 0 14 14" id="icon-data-constructor">
    <path d="M4.44415 4.49805V3.66016H3.20197L3.19611 3.08008C3.19611 2.85352 3.2254 2.65234 3.284 2.47656C3.34259 2.30078 3.43439 2.1543 3.55939 2.03711C3.68048 1.91602 3.83673 1.82617 4.02814 1.76758C4.21954 1.70508 4.4422 1.67188 4.69611 1.66797C4.85236 1.66797 4.99884 1.68359 5.13556 1.71484C5.27618 1.74609 5.39728 1.78711 5.49884 1.83789L5.63361 0.976562C5.45001 0.910156 5.27032 0.855469 5.09454 0.8125C4.92267 0.769531 4.74493 0.748047 4.56134 0.748047C4.18634 0.748047 3.84845 0.798828 3.54767 0.900391C3.24689 1.00195 2.99103 1.15039 2.78009 1.3457C2.56525 1.54492 2.40118 1.79102 2.2879 2.08398C2.17462 2.37305 2.11798 2.70508 2.11798 3.08008V3.66016H1.08087V4.49805H2.11798V10.3047C2.11407 10.5586 2.07892 10.7812 2.01251 10.9727C1.95001 11.1641 1.85626 11.3184 1.73126 11.4355C1.64923 11.5098 1.55157 11.5664 1.43829 11.6055C1.32892 11.6484 1.20782 11.6699 1.07501 11.6699C0.989075 11.6699 0.852356 11.6543 0.664856 11.623C0.481262 11.5918 0.332825 11.5449 0.219543 11.4824L0.137512 12.3496C0.289856 12.4277 0.444153 12.4824 0.600403 12.5137C0.756653 12.5449 0.914856 12.5605 1.07501 12.5605C1.40704 12.5605 1.70392 12.5098 1.96564 12.4082C2.23126 12.3105 2.45587 12.166 2.63947 11.9746C2.81915 11.7871 2.95782 11.5527 3.05548 11.2715C3.15314 10.9902 3.20197 10.668 3.20197 10.3047V4.49805H4.44415Z" fill="currentColor"/>
<path d="M6.52073 8.46591L8.62301 6.36364L6.52073 4.28977L4.41846 6.36364L6.52073 8.46591ZM9.2196 11.1364L11.2935 9.0625L9.2196 6.96023L7.11732 9.0625L9.2196 11.1364ZM9.2196 5.76705L11.2935 3.69318L9.2196 1.59091L7.11732 3.69318L9.2196 5.76705ZM11.8901 8.46591L13.9639 6.36364L11.8901 4.28977L9.81619 6.36364L11.8901 8.46591ZM6.52073 7.39347L5.50156 6.36364L6.52073 5.34801L7.54346 6.36364L6.52073 7.39347ZM11.8901 7.39347L10.8673 6.36364L11.8901 5.34801L12.9057 6.36364L11.8901 7.39347ZM9.2196 4.6946L8.20042 3.69318L9.2196 2.66335L10.2175 3.69318L9.2196 4.6946ZM9.2196 10.0639L8.20042 9.0625L9.2196 8.04688L10.2175 9.0625L9.2196 10.0639Z" fill="currentColor"/>
  </symbol>
  <symbol fill="none" xmlns="http://www.w3.org/2000/svg" viewBox="0 0 14 14" id="icon-ability-constructor">
    <path d="M4.44415 4.49805V3.66016H3.20197L3.19611 3.08008C3.19611 2.85352 3.2254 2.65234 3.284 2.47656C3.34259 2.30078 3.43439 2.1543 3.55939 2.03711C3.68048 1.91602 3.83673 1.82617 4.02814 1.76758C4.21954 1.70508 4.4422 1.67188 4.69611 1.66797C4.85236 1.66797 4.99884 1.68359 5.13556 1.71484C5.27618 1.74609 5.39728 1.78711 5.49884 1.83789L5.63361 0.976562C5.45001 0.910156 5.27032 0.855469 5.09454 0.8125C4.92267 0.769531 4.74493 0.748047 4.56134 0.748047C4.18634 0.748047 3.84845 0.798828 3.54767 0.900391C3.24689 1.00195 2.99103 1.15039 2.78009 1.3457C2.56525 1.54492 2.40118 1.79102 2.2879 2.08398C2.17462 2.37305 2.11798 2.70508 2.11798 3.08008V3.66016H1.08087V4.49805H2.11798V10.3047C2.11407 10.5586 2.07892 10.7812 2.01251 10.9727C1.95001 11.1641 1.85626 11.3184 1.73126 11.4355C1.64923 11.5098 1.55157 11.5664 1.43829 11.6055C1.32892 11.6484 1.20782 11.6699 1.07501 11.6699C0.989075 11.6699 0.852356 11.6543 0.664856 11.623C0.481262 11.5918 0.332825 11.5449 0.219543 11.4824L0.137512 12.3496C0.289856 12.4277 0.444153 12.4824 0.600403 12.5137C0.756653 12.5449 0.914856 12.5605 1.07501 12.5605C1.40704 12.5605 1.70392 12.5098 1.96564 12.4082C2.23126 12.3105 2.45587 12.166 2.63947 11.9746C2.81915 11.7871 2.95782 11.5527 3.05548 11.2715C3.15314 10.9902 3.20197 10.668 3.20197 10.3047V4.49805H4.44415Z" fill="currentColor"/>
<path d="M9.08807 9.2642V8.35795C8.41477 8.35795 8.27841 8.09943 8.27841 7.55114V6.72159C8.27841 6.28409 8.09091 5.89205 7.26705 5.72443V5.6108C8.09091 5.44318 8.27841 5.05114 8.27841 4.61648V3.78693C8.27841 3.2358 8.41477 2.97727 9.08807 2.97727V2.07386C7.94034 2.07386 7.11932 2.2642 7.11932 3.66477V4.29261C7.11932 4.875 6.90057 5.12216 6.24716 5.12216V6.21307C6.90057 6.21307 7.11932 6.46023 7.11932 7.04261V7.6733C7.11932 9.07386 7.94034 9.2642 9.08807 9.2642ZM10.3839 2.07102V2.97727C11.0572 2.97727 11.1935 3.2358 11.1935 3.78409V4.61364C11.1935 5.05114 11.381 5.44318 12.2049 5.6108V5.72443C11.381 5.89205 11.1935 6.28409 11.1935 6.71875V7.5483C11.1935 8.09943 11.0572 8.35795 10.3839 8.35795V9.26136C11.5316 9.26136 12.3526 9.07102 12.3526 7.67045V7.04261C12.3526 6.46023 12.5714 6.21307 13.2248 6.21307V5.12216C12.5714 5.12216 12.3526 4.875 12.3526 4.29261V3.66193C12.3526 2.26136 11.5316 2.07102 10.3839 2.07102Z" fill="currentColor"/>
  </symbol>
</svg>
