<svg width="24" height="24" viewBox="0 0 24 24" fill="none" xmlns="http://www.w3.org/2000/svg">
<path d="M0 4C0 1.79086 1.79086 0 4 0H20C22.2091 0 24 1.79086 24 4V20C24 22.2091 22.2091 24 20 24H4C1.79086 24 0 22.2091 0 20V4Z" fill="#818286"/>
<mask id="mask0" mask-type="alpha" maskUnits="userSpaceOnUse" x="0" y="0" width="24" height="24">
<rect width="24" height="24" rx="4" fill="#18181C"/>
</mask>
<g mask="url(#mask0)">
<path d="M10.3993 -6.47083L8.03249 -7.83734C6.07967 -4.45495 6.07967 -0.287686 8.03249 3.09471L10.3993 1.7282C8.93472 -0.808591 8.93472 -3.93405 10.3993 -6.47083ZM8.03247 -7.83733C7.65513 -7.18374 7.87906 -6.34799 8.53265 -5.97064C9.18624 -5.5933 10.022 -5.81723 10.3993 -6.47082C10.7767 -7.12441 10.5527 -7.96016 9.89916 -8.3375C9.24557 -8.71485 8.40982 -8.49092 8.03247 -7.83733ZM8.03247 3.09471C8.40982 3.7483 9.24557 3.97223 9.89916 3.59488C10.5527 3.21754 10.7767 2.38179 10.3993 1.7282C10.022 1.07461 9.18624 0.850674 8.53265 1.22803C7.87906 1.60537 7.65512 2.44112 8.03247 3.09471Z" fill="#515258"/>
<path d="M8.03244 3.09469L10.3993 1.72818C8.44648 -1.65421 4.83751 -3.73784 0.931868 -3.73784V-1.00483C3.8611 -1.00483 6.56783 0.557896 8.03244 3.09469H8.03244ZM10.3993 1.72819C10.022 1.0746 9.18622 0.850658 8.53263 1.22801C7.87904 1.60536 7.6551 2.44111 8.03246 3.0947C8.4098 3.74829 9.24555 3.97223 9.89914 3.59487C10.5527 3.21753 10.7767 2.38178 10.3993 1.72819ZM0.931881 -3.73784C0.177181 -3.73784 -0.434631 -3.12603 -0.434631 -2.37133C-0.434631 -1.61663 0.177181 -1.00482 0.931881 -1.00482C1.68658 -1.00482 2.29839 -1.61663 2.29839 -2.37133C2.29839 -3.12603 1.68658 -3.73784 0.931881 -3.73784Z" fill="#515258"/>
<path d="M6.39795 -2.2732C5.74436 -2.65055 4.90861 -2.42662 4.53127 -1.77303C4.15392 -1.11944 4.37785 -0.283695 5.03144 0.0936494C5.68502 0.470994 6.52077 0.247067 6.89812 -0.406521C7.27546 -1.06011 7.05153 -1.89586 6.39795 -2.2732Z" fill="#515258"/>
<path d="M0.931864 -1.00483V-3.73784C-2.97378 -3.73784 -6.58275 -1.65421 -8.53557 1.72818L-6.16871 3.09469C-4.7041 0.557896 -1.99738 -1.00483 0.931849 -1.00483H0.931864ZM0.931864 -3.73784C0.177163 -3.73784 -0.434649 -3.12603 -0.434649 -2.37133C-0.434649 -1.61663 0.177163 -1.00482 0.931864 -1.00482C1.68656 -1.00482 2.29837 -1.61663 2.29837 -2.37133C2.29837 -3.12603 1.68656 -3.73784 0.931864 -3.73784ZM-8.53557 1.72819C-8.91291 2.38178 -8.68899 3.21753 -8.0354 3.59487C-7.38181 3.97222 -6.54606 3.74829 -6.16871 3.0947C-5.79137 2.44111 -6.0153 1.60536 -6.66889 1.22801C-7.32248 0.850669 -8.15822 1.0746 -8.53557 1.72819Z" fill="#515258"/>
<path d="M9.13086 2.26425C9.78445 1.88691 10.0084 1.05116 9.63103 0.397575C9.25369 -0.256013 8.41794 -0.479951 7.76435 -0.102595C7.11076 0.274749 6.88682 1.1105 7.26418 1.76408C7.64152 2.41767 8.47728 2.64161 9.13086 2.26425Z" fill="#515258"/>
<path d="M26.9675 3.09467L24.6006 1.72816C22.6478 5.11054 22.6478 9.27781 24.6006 12.6602L26.9675 11.2937C25.5028 8.75691 25.5028 5.63145 26.9675 3.09467ZM24.6006 1.72817C24.2232 2.38176 24.4472 3.21751 25.1008 3.59485C25.7543 3.9722 26.5901 3.74827 26.9674 3.09468C27.3448 2.44109 27.1209 1.60534 26.4673 1.228C25.8137 0.85065 24.9779 1.07458 24.6006 1.72817ZM24.6006 12.6602C24.9779 13.3138 25.8137 13.5377 26.4673 13.1604C27.1209 12.783 27.3448 11.9473 26.9674 11.2937C26.5901 10.6401 25.7543 10.4162 25.1008 10.7935C24.4472 11.1709 24.2232 12.0066 24.6006 12.6602Z" fill="#515258"/>
<path d="M23.136 7.19422C23.136 7.94892 23.7478 8.56073 24.5025 8.56073C25.2572 8.56073 25.869 7.94892 25.869 7.19422C25.869 6.43952 25.2572 5.82771 24.5025 5.82771C23.7478 5.82771 23.136 6.43952 23.136 7.19422Z" fill="#515258"/>
<path d="M24.6006 12.6602L26.9674 11.2937C25.0146 7.91135 21.4056 5.82771 17.5 5.82771V8.56072C20.4292 8.56072 23.1359 10.1234 24.6006 12.6602H24.6006ZM26.9674 11.2937C26.5901 10.6402 25.7543 10.4162 25.1007 10.7936C24.4472 11.1709 24.2232 12.0067 24.6006 12.6603C24.9779 13.3138 25.8137 13.5378 26.4673 13.1604C27.1208 12.7831 27.3448 11.9473 26.9674 11.2937ZM17.5 5.82771C16.7453 5.82771 16.1335 6.43952 16.1335 7.19422C16.1335 7.94892 16.7453 8.56073 17.5 8.56073C18.2547 8.56073 18.8665 7.94892 18.8665 7.19422C18.8665 6.43952 18.2547 5.82771 17.5 5.82771Z" fill="#515258"/>
<path d="M22.9661 7.29236C22.3125 6.91501 21.4767 7.13894 21.0994 7.79253C20.722 8.44612 20.946 9.28186 21.5996 9.65921C22.2531 10.0366 23.0889 9.81263 23.4662 9.15904C23.8436 8.50545 23.6196 7.6697 22.9661 7.29236Z" fill="#515258"/>
<path d="M17.5 5.82769V8.56069C21.4056 8.56069 25.0146 6.47706 26.9674 3.09468L24.6006 1.72817C23.136 4.26496 20.4292 5.82769 17.5 5.82769H17.5ZM17.5 8.56069C18.2547 8.56069 18.8665 7.94888 18.8665 7.19418C18.8665 6.43948 18.2547 5.82767 17.5 5.82767C16.7453 5.82767 16.1335 6.43948 16.1335 7.19418C16.1335 7.94888 16.7453 8.56069 17.5 8.56069ZM26.9674 3.09468C27.3448 2.44109 27.1208 1.60534 26.4672 1.228C25.8137 0.850652 24.9779 1.07458 24.6006 1.72817C24.2232 2.38176 24.4472 3.2175 25.1007 3.59485C25.7543 3.97219 26.5901 3.74826 26.9674 3.09468Z" fill="#515258"/>
<path d="M22.9659 7.0961C23.6195 6.71876 23.8434 5.88301 23.4661 5.22942C23.0887 4.57584 22.253 4.3519 21.5994 4.72925C20.9458 5.1066 20.7218 5.94234 21.0992 6.59593C21.4765 7.24952 22.3123 7.47346 22.9659 7.0961Z" fill="#515258"/>
<path d="M23.6493 8.27955C24.3029 7.90221 24.5268 7.06645 24.1495 6.41286C23.7721 5.75928 22.9364 5.53534 22.2828 5.91269C21.6292 6.29004 21.4053 7.12579 21.7826 7.77938C22.16 8.43297 22.9957 8.65691 23.6493 8.27955Z" fill="#515258"/>
<path d="M17.5 8.56072V5.82771C13.5943 5.82771 9.98537 7.91135 8.03255 11.2937L10.3994 12.6602C11.864 10.1234 14.5707 8.56072 17.5 8.56072H17.5ZM17.5 5.82771C16.7453 5.82771 16.1335 6.43952 16.1335 7.19422C16.1335 7.94892 16.7453 8.56073 17.5 8.56073C18.2547 8.56073 18.8665 7.94892 18.8665 7.19422C18.8665 6.43952 18.2547 5.82771 17.5 5.82771ZM8.03255 11.2937C7.6552 11.9473 7.87913 12.7831 8.53272 13.1604C9.18631 13.5378 10.0221 13.3138 10.3994 12.6603C10.7767 12.0067 10.5528 11.1709 9.89923 10.7936C9.24564 10.4162 8.40989 10.6402 8.03255 11.2937Z" fill="#515258"/>
<path d="M12.0339 7.29236C11.3804 7.66971 11.1564 8.50545 11.5338 9.15904C11.9111 9.81263 12.7469 10.0366 13.4005 9.65921C14.054 9.28187 14.278 8.44612 13.9006 7.79253C13.5233 7.13895 12.6875 6.91501 12.0339 7.29236Z" fill="#515258"/>
<path d="M8.03254 11.2937L10.3994 12.6602C12.3522 9.27784 12.3522 5.11057 10.3994 1.72818L8.03254 3.09469C9.49716 5.63148 9.49716 8.75694 8.03254 11.2937ZM10.3994 12.6602C10.7767 12.0066 10.5528 11.1709 9.89923 10.7935C9.24564 10.4162 8.4099 10.6401 8.03255 11.2937C7.65521 11.9473 7.87913 12.783 8.53272 13.1604C9.18631 13.5377 10.0221 13.3138 10.3994 12.6602ZM10.3994 1.72818C10.0221 1.07459 9.18631 0.850644 8.53272 1.228C7.87913 1.60534 7.6552 2.4411 8.03255 3.09469C8.4099 3.74827 9.24564 3.97221 9.89923 3.59486C10.5528 3.21751 10.7768 2.38177 10.3994 1.72818Z" fill="#515258"/>
<path d="M11.864 7.19422C11.864 6.43952 11.2522 5.82771 10.4975 5.82771C9.74279 5.82771 9.13098 6.43952 9.13098 7.19422C9.13098 7.94892 9.74279 8.56073 10.4975 8.56073C11.2522 8.56073 11.864 7.94892 11.864 7.19422Z" fill="#515258"/>
<path d="M10.3994 1.72819L8.03256 3.09469C9.98539 6.47708 13.5943 8.56071 17.5 8.56071V5.8277C14.5708 5.8277 11.864 4.26498 10.3994 1.72819H10.3994ZM8.03255 3.09468C8.4099 3.74827 9.24565 3.97221 9.89923 3.59485C10.5528 3.21751 10.7768 2.38176 10.3994 1.72817C10.0221 1.07458 9.18631 0.850646 8.53272 1.228C7.87914 1.60535 7.6552 2.44109 8.03255 3.09468ZM17.5 8.5607C18.2547 8.5607 18.8665 7.94889 18.8665 7.19419C18.8665 6.43949 18.2547 5.82768 17.5 5.82768C16.7453 5.82768 16.1335 6.43949 16.1335 7.19419C16.1335 7.94889 16.7453 8.5607 17.5 8.5607Z" fill="#515258"/>
<path d="M12.0339 7.0961C12.6875 7.47344 13.5233 7.24952 13.9006 6.59593C14.278 5.94234 14.054 5.10659 13.4005 4.72925C12.7469 4.3519 11.9111 4.57583 11.5338 5.22942C11.1564 5.88301 11.3804 6.71875 12.0339 7.0961Z" fill="#515258"/>
<path d="M11.3507 8.27955C12.0043 8.65689 12.84 8.43296 13.2174 7.77938C13.5947 7.12579 13.3708 6.29003 12.7172 5.91269C12.0636 5.53534 11.2279 5.75927 10.8505 6.41286C10.4732 7.06645 10.6971 7.9022 11.3507 8.27955Z" fill="#515258"/>
<path d="M8.03244 3.09469L10.3993 1.72818C8.44648 -1.65421 4.83751 -3.73784 0.931868 -3.73784V-1.00483C3.8611 -1.00483 6.56783 0.557896 8.03244 3.09469H8.03244ZM10.3993 1.72819C10.022 1.0746 9.18622 0.850658 8.53263 1.22801C7.87904 1.60536 7.6551 2.44111 8.03246 3.0947C8.4098 3.74829 9.24555 3.97223 9.89914 3.59487C10.5527 3.21753 10.7767 2.38178 10.3993 1.72819ZM0.931881 -3.73784C0.177181 -3.73784 -0.434631 -3.12603 -0.434631 -2.37133C-0.434631 -1.61663 0.177181 -1.00482 0.931881 -1.00482C1.68658 -1.00482 2.29839 -1.61663 2.29839 -2.37133C2.29839 -3.12603 1.68658 -3.73784 0.931881 -3.73784Z" fill="#515258"/>
<path d="M6.39795 -2.2732C5.74436 -2.65055 4.90861 -2.42662 4.53127 -1.77303C4.15392 -1.11944 4.37785 -0.283695 5.03144 0.0936494C5.68502 0.470994 6.52077 0.247067 6.89812 -0.406521C7.27546 -1.06011 7.05153 -1.89586 6.39795 -2.2732Z" fill="#515258"/>
<path d="M10.3993 -6.47083L8.03249 -7.83734C6.07967 -4.45495 6.07967 -0.287686 8.03249 3.09471L10.3993 1.7282C8.93472 -0.808591 8.93472 -3.93405 10.3993 -6.47083ZM8.03247 -7.83733C7.65513 -7.18374 7.87906 -6.34799 8.53265 -5.97064C9.18624 -5.5933 10.022 -5.81723 10.3993 -6.47082C10.7767 -7.12441 10.5527 -7.96016 9.89916 -8.3375C9.24557 -8.71485 8.40982 -8.49092 8.03247 -7.83733ZM8.03247 3.09471C8.40982 3.7483 9.24557 3.97223 9.89916 3.59488C10.5527 3.21754 10.7767 2.38179 10.3993 1.7282C10.022 1.07461 9.18624 0.850674 8.53265 1.22803C7.87906 1.60537 7.65512 2.44112 8.03247 3.09471Z" fill="#515258"/>
<path d="M25.699 11.8298C26.3526 11.4525 26.5765 10.6167 26.1991 9.96314C25.8218 9.30955 24.9861 9.08562 24.3325 9.46297C23.6789 9.84032 23.4549 10.6761 23.8323 11.3297C24.2096 11.9832 25.0454 12.2072 25.699 11.8298Z" fill="#515258"/>
<path d="M9.30084 11.8298C9.95443 12.2072 10.7902 11.9832 11.1675 11.3296C11.5449 10.6761 11.3209 9.84031 10.6674 9.46297C10.0138 9.08562 9.17802 9.30955 8.80067 9.96314C8.42333 10.6167 8.64726 11.4525 9.30084 11.8298Z" fill="#515258"/>
<path d="M19.8668 -1.00481L22.2337 0.3617C23.2101 -1.3295 23.2101 -3.41313 22.2337 -5.10432L19.8668 -3.73781C20.355 -2.89221 20.355 -1.85039 19.8668 -1.0048V-1.00481ZM22.2337 0.3617C22.611 -0.291888 22.3871 -1.12763 21.7335 -1.50498C21.0799 -1.88232 20.2442 -1.6584 19.8668 -1.00481C19.4895 -0.351221 19.7134 0.484526 20.367 0.861871C21.0206 1.23922 21.8563 1.01529 22.2337 0.3617ZM22.2337 -5.10432C21.8563 -5.7579 21.0206 -5.98184 20.367 -5.60449C19.7134 -5.22714 19.4895 -4.3914 19.8668 -3.73781C20.2442 -3.08422 21.0799 -2.86028 21.7335 -3.23764C22.3871 -3.61498 22.611 -4.45073 22.2337 -5.10432Z" fill="#2D2E35"/>
<path d="M17.5 0.361667V3.09468C19.4528 3.09468 21.2573 2.05285 22.2337 0.361667L19.8669 -1.00484C19.3787 -0.159249 18.4764 0.361667 17.5 0.361667H17.5ZM17.5 3.09468C18.2547 3.09468 18.8665 2.48287 18.8665 1.72817C18.8665 0.97347 18.2547 0.361661 17.5 0.361661C16.7453 0.361661 16.1335 0.97347 16.1335 1.72817C16.1335 2.48287 16.7453 3.09468 17.5 3.09468V3.09468ZM22.2337 0.361667C22.6111 -0.291921 22.3871 -1.12767 21.7335 -1.50501C21.0799 -1.88236 20.2442 -1.65843 19.8669 -1.00484C19.4895 -0.351254 19.7134 0.484493 20.367 0.861838C21.0206 1.23918 21.8564 1.01526 22.2337 0.361667Z" fill="#2D2E35"/>
<path d="M20.233 2.36239C20.8866 1.98505 21.1105 1.1493 20.7331 0.495712C20.3558 -0.157876 19.5201 -0.381814 18.8665 -0.00445836C18.2129 0.372886 17.9889 1.20863 18.3663 1.86222C18.7436 2.51581 19.5794 2.73975 20.233 2.36239Z" fill="#2D2E35"/>
<path d="M15.1332 -1.00484L12.7663 0.361672C13.7427 2.05287 15.5472 3.09468 17.5 3.09468V0.361672C16.5236 0.361672 15.6214 -0.159233 15.1332 -1.00484H15.1332ZM12.7663 0.361672C13.1437 1.01526 13.9794 1.2392 14.633 0.861842C15.2866 0.484498 15.5105 -0.351249 15.1332 -1.00484C14.7558 -1.65843 13.9201 -1.88236 13.2665 -1.50501C12.6129 -1.12766 12.389 -0.291916 12.7663 0.361672ZM17.5 3.09468C18.2547 3.09468 18.8665 2.48287 18.8665 1.72817C18.8665 0.973474 18.2547 0.361665 17.5 0.361665C16.7453 0.361665 16.1335 0.973474 16.1335 1.72817C16.1335 2.48287 16.7453 3.09468 17.5 3.09468V3.09468Z" fill="#2D2E35"/>
<path d="M14.7668 2.36239C15.4204 2.73973 16.2562 2.5158 16.6335 1.86222C17.0109 1.20863 16.7869 0.372881 16.1334 -0.00446322C15.4798 -0.381808 14.644 -0.157881 14.2667 0.495707C13.8893 1.1493 14.1133 1.98504 14.7668 2.36239Z" fill="#2D2E35"/>
<path d="M15.1331 -3.73782L12.7662 -5.10434C11.7898 -3.41314 11.7898 -1.3295 12.7662 0.361689L15.1331 -1.00482C14.6449 -1.85041 14.6449 -2.89224 15.1331 -3.73783V-3.73782ZM12.7662 -5.10432C12.3889 -4.45073 12.6128 -3.61499 13.2664 -3.23764C13.92 -2.8603 14.7557 -3.08422 15.1331 -3.73781C15.5104 -4.3914 15.2865 -5.22715 14.6329 -5.60449C13.9793 -5.98184 13.1436 -5.75791 12.7662 -5.10432ZM12.7662 0.361696C13.1436 1.01528 13.9793 1.23922 14.6329 0.861866C15.2865 0.484522 15.5104 -0.351225 15.1331 -1.00481C14.7557 -1.6584 13.92 -1.88234 13.2664 -1.50498C12.6128 -1.12764 12.3889 -0.291892 12.7662 0.361696Z" fill="#2D2E35"/>
<path d="M17.5 5.82769V8.56069C21.4056 8.56069 25.0146 6.47706 26.9674 3.09468L24.6006 1.72817C23.136 4.26496 20.4292 5.82769 17.5 5.82769H17.5ZM17.5 8.56069C18.2547 8.56069 18.8665 7.94888 18.8665 7.19418C18.8665 6.43948 18.2547 5.82767 17.5 5.82767C16.7453 5.82767 16.1335 6.43948 16.1335 7.19418C16.1335 7.94888 16.7453 8.56069 17.5 8.56069ZM26.9674 3.09468C27.3448 2.44109 27.1208 1.60534 26.4672 1.228C25.8137 0.850652 24.9779 1.07458 24.6006 1.72817C24.2232 2.38176 24.4472 3.2175 25.1007 3.59485C25.7543 3.97219 26.5901 3.74826 26.9674 3.09468Z" fill="#515258"/>
<path d="M22.9659 7.0961C23.6195 6.71876 23.8434 5.88301 23.4661 5.22942C23.0887 4.57584 22.253 4.3519 21.5994 4.72925C20.9458 5.1066 20.7218 5.94234 21.0992 6.59593C21.4765 7.24952 22.3123 7.47346 22.9659 7.0961Z" fill="#515258"/>
<path d="M10.3994 1.72819L8.03256 3.09469C9.98539 6.47708 13.5943 8.56071 17.5 8.56071V5.8277C14.5708 5.8277 11.864 4.26498 10.3994 1.72819H10.3994ZM8.03255 3.09468C8.4099 3.74827 9.24565 3.97221 9.89923 3.59485C10.5528 3.21751 10.7768 2.38176 10.3994 1.72817C10.0221 1.07458 9.18631 0.850646 8.53272 1.228C7.87914 1.60535 7.6552 2.44109 8.03255 3.09468ZM17.5 8.5607C18.2547 8.5607 18.8665 7.94889 18.8665 7.19419C18.8665 6.43949 18.2547 5.82768 17.5 5.82768C16.7453 5.82768 16.1335 6.43949 16.1335 7.19419C16.1335 7.94889 16.7453 8.5607 17.5 8.5607Z" fill="#515258"/>
<path d="M12.0339 7.0961C12.6875 7.47344 13.5233 7.24952 13.9006 6.59593C14.278 5.94234 14.054 5.10659 13.4005 4.72925C12.7469 4.3519 11.9111 4.57583 11.5338 5.22942C11.1564 5.88301 11.3804 6.71875 12.0339 7.0961Z" fill="#515258"/>
<path d="M10.3993 -6.47083L8.03249 -7.83734C6.07967 -4.45495 6.07967 -0.287686 8.03249 3.09471L10.3993 1.7282C8.93472 -0.808591 8.93472 -3.93405 10.3993 -6.47083ZM8.03247 -7.83733C7.65513 -7.18374 7.87906 -6.34799 8.53265 -5.97064C9.18624 -5.5933 10.022 -5.81723 10.3993 -6.47082C10.7767 -7.12441 10.5527 -7.96016 9.89916 -8.3375C9.24557 -8.71485 8.40982 -8.49092 8.03247 -7.83733ZM8.03247 3.09471C8.40982 3.7483 9.24557 3.97223 9.89916 3.59488C10.5527 3.21754 10.7767 2.38179 10.3993 1.7282C10.022 1.07461 9.18624 0.850674 8.53265 1.22803C7.87906 1.60537 7.65512 2.44112 8.03247 3.09471Z" fill="#515258"/>
<path d="M10.3993 -6.47083L8.03249 -7.83734C6.07967 -4.45495 6.07967 -0.287686 8.03249 3.09471L10.3993 1.7282C8.93472 -0.808591 8.93472 -3.93405 10.3993 -6.47083ZM8.03247 -7.83733C7.65513 -7.18374 7.87906 -6.34799 8.53265 -5.97064C9.18624 -5.5933 10.022 -5.81723 10.3993 -6.47082C10.7767 -7.12441 10.5527 -7.96016 9.89916 -8.3375C9.24557 -8.71485 8.40982 -8.49092 8.03247 -7.83733ZM8.03247 3.09471C8.40982 3.7483 9.24557 3.97223 9.89916 3.59488C10.5527 3.21754 10.7767 2.38179 10.3993 1.7282C10.022 1.07461 9.18624 0.850674 8.53265 1.22803C7.87906 1.60537 7.65512 2.44112 8.03247 3.09471Z" fill="#515258"/>
<path d="M8.03244 3.09469L10.3993 1.72818C8.44648 -1.65421 4.83751 -3.73784 0.931868 -3.73784V-1.00483C3.8611 -1.00483 6.56783 0.557896 8.03244 3.09469H8.03244ZM10.3993 1.72819C10.022 1.0746 9.18622 0.850658 8.53263 1.22801C7.87904 1.60536 7.6551 2.44111 8.03246 3.0947C8.4098 3.74829 9.24555 3.97223 9.89914 3.59487C10.5527 3.21753 10.7767 2.38178 10.3993 1.72819ZM0.931881 -3.73784C0.177181 -3.73784 -0.434631 -3.12603 -0.434631 -2.37133C-0.434631 -1.61663 0.177181 -1.00482 0.931881 -1.00482C1.68658 -1.00482 2.29839 -1.61663 2.29839 -2.37133C2.29839 -3.12603 1.68658 -3.73784 0.931881 -3.73784Z" fill="#515258"/>
<path d="M6.39795 -2.2732C5.74436 -2.65055 4.90861 -2.42662 4.53127 -1.77303C4.15392 -1.11944 4.37785 -0.283695 5.03144 0.0936494C5.68502 0.470994 6.52077 0.247067 6.89812 -0.406521C7.27546 -1.06011 7.05153 -1.89586 6.39795 -2.2732Z" fill="#515258"/>
<path d="M10.3994 1.72819L8.03256 3.09469C9.98539 6.47708 13.5943 8.56071 17.5 8.56071V5.8277C14.5708 5.8277 11.864 4.26498 10.3994 1.72819H10.3994ZM8.03255 3.09468C8.4099 3.74827 9.24565 3.97221 9.89923 3.59485C10.5528 3.21751 10.7768 2.38176 10.3994 1.72817C10.0221 1.07458 9.18631 0.850646 8.53272 1.228C7.87914 1.60535 7.6552 2.44109 8.03255 3.09468ZM17.5 8.5607C18.2547 8.5607 18.8665 7.94889 18.8665 7.19419C18.8665 6.43949 18.2547 5.82768 17.5 5.82768C16.7453 5.82768 16.1335 6.43949 16.1335 7.19419C16.1335 7.94889 16.7453 8.5607 17.5 8.5607Z" fill="#515258"/>
<path d="M12.0339 7.0961C12.6875 7.47344 13.5233 7.24952 13.9006 6.59593C14.278 5.94234 14.054 5.10659 13.4005 4.72925C12.7469 4.3519 11.9111 4.57583 11.5338 5.22942C11.1564 5.88301 11.3804 6.71875 12.0339 7.0961Z" fill="#515258"/>
<path d="M17.5 8.56072V5.82771C13.5943 5.82771 9.98537 7.91135 8.03255 11.2937L10.3994 12.6602C11.864 10.1234 14.5707 8.56072 17.5 8.56072H17.5ZM17.5 5.82771C16.7453 5.82771 16.1335 6.43952 16.1335 7.19422C16.1335 7.94892 16.7453 8.56073 17.5 8.56073C18.2547 8.56073 18.8665 7.94892 18.8665 7.19422C18.8665 6.43952 18.2547 5.82771 17.5 5.82771ZM8.03255 11.2937C7.6552 11.9473 7.87913 12.7831 8.53272 13.1604C9.18631 13.5378 10.0221 13.3138 10.3994 12.6603C10.7767 12.0067 10.5528 11.1709 9.89923 10.7936C9.24564 10.4162 8.40989 10.6402 8.03255 11.2937Z" fill="#515258"/>
<path d="M12.0339 7.29236C11.3804 7.66971 11.1564 8.50545 11.5338 9.15904C11.9111 9.81263 12.7469 10.0366 13.4005 9.65921C14.054 9.28187 14.278 8.44612 13.9006 7.79253C13.5233 7.13895 12.6875 6.91501 12.0339 7.29236Z" fill="#515258"/>
<path d="M8.03254 11.2937L10.3994 12.6602C12.3522 9.27784 12.3522 5.11057 10.3994 1.72818L8.03254 3.09469C9.49716 5.63148 9.49716 8.75694 8.03254 11.2937ZM10.3994 12.6602C10.7767 12.0066 10.5528 11.1709 9.89923 10.7935C9.24564 10.4162 8.4099 10.6401 8.03255 11.2937C7.65521 11.9473 7.87913 12.783 8.53272 13.1604C9.18631 13.5377 10.0221 13.3138 10.3994 12.6602ZM10.3994 1.72818C10.0221 1.07459 9.18631 0.850644 8.53272 1.228C7.87913 1.60534 7.6552 2.4411 8.03255 3.09469C8.4099 3.74827 9.24564 3.97221 9.89923 3.59486C10.5528 3.21751 10.7768 2.38177 10.3994 1.72818Z" fill="#515258"/>
<path d="M11.864 7.19422C11.864 6.43952 11.2522 5.82771 10.4975 5.82771C9.74279 5.82771 9.13098 6.43952 9.13098 7.19422C9.13098 7.94892 9.74279 8.56073 10.4975 8.56073C11.2522 8.56073 11.864 7.94892 11.864 7.19422Z" fill="#515258"/>
<path d="M13.2305 7.19422C13.2305 6.43952 12.6186 5.82771 11.8639 5.82771C11.1092 5.82771 10.4974 6.43952 10.4974 7.19422C10.4974 7.94892 11.1092 8.56073 11.8639 8.56073C12.6186 8.56073 13.2305 7.94892 13.2305 7.19422Z" fill="#515258"/>
<path d="M10.3993 12.6603L8.03249 11.2938C6.07967 14.6762 6.07967 18.8434 8.03249 22.2258L10.3993 20.8593C8.93472 18.3225 8.93472 15.1971 10.3993 12.6603ZM8.03247 11.2938C7.65513 11.9474 7.87906 12.7831 8.53265 13.1605C9.18624 13.5378 10.022 13.3139 10.3993 12.6603C10.7767 12.0067 10.5527 11.171 9.89916 10.7936C9.24557 10.4163 8.40982 10.6402 8.03247 11.2938ZM8.03247 22.2258C8.40982 22.8794 9.24557 23.1033 9.89916 22.726C10.5527 22.3486 10.7767 21.5129 10.3993 20.8593C10.022 20.2057 9.18624 19.9818 8.53265 20.3591C7.87906 20.7365 7.65512 21.5722 8.03247 22.2258Z" fill="#515258"/>
<path d="M6.56787 16.7597C6.56787 17.5144 7.17968 18.1262 7.93438 18.1262C8.68908 18.1262 9.30089 17.5144 9.30089 16.7597C9.30089 16.005 8.68908 15.3932 7.93438 15.3932C7.17968 15.3932 6.56787 16.005 6.56787 16.7597Z" fill="#515258"/>
<path d="M8.03244 22.2257L10.3993 20.8592C8.44648 17.4769 4.83751 15.3932 0.931868 15.3932V18.1262C3.8611 18.1262 6.56783 19.689 8.03244 22.2257H8.03244ZM10.3993 20.8592C10.022 20.2057 9.18622 19.9817 8.53263 20.3591C7.87904 20.7364 7.6551 21.5722 8.03246 22.2258C8.4098 22.8793 9.24555 23.1033 9.89914 22.7259C10.5527 22.3486 10.7767 21.5128 10.3993 20.8592ZM0.931881 15.3932C0.177181 15.3932 -0.434631 16.005 -0.434631 16.7597C-0.434631 17.5144 0.177181 18.1262 0.931881 18.1262C1.68658 18.1262 2.29839 17.5144 2.29839 16.7597C2.29839 16.005 1.68658 15.3932 0.931881 15.3932Z" fill="#515258"/>
<path d="M6.39795 16.8578C5.74436 16.4805 4.90861 16.7044 4.53127 17.358C4.15392 18.0116 4.37785 18.8474 5.03144 19.2247C5.68502 19.602 6.52077 19.3781 6.89812 18.7245C7.27546 18.0709 7.05153 17.2352 6.39795 16.8578Z" fill="#515258"/>
<path d="M0.931881 15.3932V18.1263C4.83753 18.1263 8.44649 16.0426 10.3993 12.6602L8.03246 11.2937C6.56784 13.8305 3.86112 15.3932 0.931891 15.3932H0.931881ZM0.931881 18.1263C1.68658 18.1263 2.29839 17.5144 2.29839 16.7597C2.29839 16.005 1.68658 15.3932 0.931881 15.3932C0.177181 15.3932 -0.434631 16.005 -0.434631 16.7597C-0.434631 17.5144 0.177181 18.1263 0.931881 18.1263ZM10.3993 12.6602C10.7767 12.0066 10.5527 11.1709 9.89914 10.7935C9.24555 10.4162 8.4098 10.6401 8.03246 11.2937C7.65511 11.9473 7.87904 12.7831 8.53263 13.1604C9.18622 13.5377 10.022 13.3138 10.3993 12.6602Z" fill="#515258"/>
<path d="M6.39795 16.6617C7.05154 16.2843 7.27548 15.4486 6.89812 14.795C6.52078 14.1414 5.68503 13.9174 5.03144 14.2948C4.37785 14.6721 4.15391 15.5079 4.53127 16.1615C4.90861 16.8151 5.74436 17.039 6.39795 16.6617Z" fill="#515258"/>
<path d="M7.08124 17.8451C7.73483 17.4678 7.95877 16.632 7.58141 15.9784C7.20407 15.3248 6.36832 15.1009 5.71473 15.4782C5.06114 15.8556 4.8372 16.6913 5.21456 17.3449C5.5919 17.9985 6.42765 18.2225 7.08124 17.8451Z" fill="#515258"/>
<path d="M0.931864 18.1262V15.3932C-2.97378 15.3932 -6.58275 17.4769 -8.53557 20.8592L-6.16871 22.2258C-4.7041 19.689 -1.99738 18.1262 0.931849 18.1262H0.931864ZM0.931864 15.3932C0.177163 15.3932 -0.434649 16.005 -0.434649 16.7597C-0.434649 17.5144 0.177163 18.1262 0.931864 18.1262C1.68656 18.1262 2.29837 17.5144 2.29837 16.7597C2.29837 16.005 1.68656 15.3932 0.931864 15.3932ZM-8.53557 20.8592C-8.91291 21.5128 -8.68899 22.3486 -8.0354 22.7259C-7.38181 23.1033 -6.54606 22.8793 -6.16871 22.2258C-5.79137 21.5722 -6.0153 20.7364 -6.66889 20.3591C-7.32248 19.9817 -8.15822 20.2057 -8.53557 20.8592Z" fill="#515258"/>
<path d="M-6.16871 11.2937L-8.53556 12.6602C-6.58274 16.0426 -2.97378 18.1263 0.931868 18.1263V15.3933C-1.99736 15.3933 -4.70409 13.8305 -6.1687 11.2937H-6.16871ZM-8.53556 12.6602C-8.15822 13.3138 -7.32247 13.5378 -6.66888 13.1604C-6.0153 12.7831 -5.79135 11.9473 -6.16871 11.2937C-6.54605 10.6401 -7.3818 10.4162 -8.03539 10.7936C-8.68898 11.1709 -8.91292 12.0066 -8.53556 12.6602ZM0.931868 18.1263C1.68657 18.1263 2.29838 17.5145 2.29838 16.7598C2.29838 16.0051 1.68657 15.3932 0.931868 15.3932C0.177168 15.3932 -0.434645 16.0051 -0.434645 16.7598C-0.434645 17.5145 0.177168 18.1263 0.931868 18.1263Z" fill="#515258"/>
<path d="M0.931864 -1.00483V-3.73784C-2.97378 -3.73784 -6.58275 -1.65421 -8.53557 1.72818L-6.16871 3.09469C-4.7041 0.557896 -1.99738 -1.00483 0.931849 -1.00483H0.931864ZM0.931864 -3.73784C0.177163 -3.73784 -0.434649 -3.12603 -0.434649 -2.37133C-0.434649 -1.61663 0.177163 -1.00482 0.931864 -1.00482C1.68656 -1.00482 2.29837 -1.61663 2.29837 -2.37133C2.29837 -3.12603 1.68656 -3.73784 0.931864 -3.73784ZM-8.53557 1.72819C-8.91291 2.38178 -8.68899 3.21753 -8.0354 3.59487C-7.38181 3.97222 -6.54606 3.74829 -6.16871 3.0947C-5.79137 2.44111 -6.0153 1.60536 -6.66889 1.22801C-7.32248 0.850669 -8.15822 1.0746 -8.53557 1.72819Z" fill="#515258"/>
<path d="M17.3301 7.19422C17.3301 6.43952 16.7183 5.82771 15.9636 5.82771C15.2089 5.82771 14.597 6.43952 14.597 7.19422C14.597 7.94892 15.2089 8.56073 15.9636 8.56073C16.7183 8.56073 17.3301 7.94892 17.3301 7.19422Z" fill="#515258"/>
<path d="M9.13086 21.3954C9.78445 21.018 10.0084 20.1823 9.63103 19.5287C9.25369 18.8751 8.41794 18.6512 7.76435 19.0285C7.11076 19.4059 6.88682 20.2416 7.26418 20.8952C7.64152 21.5488 8.47728 21.7727 9.13086 21.3954Z" fill="#515258"/>
<path d="M3.29873 5.82772L5.66559 4.46121C4.68918 2.77002 2.88469 1.7282 0.931868 1.7282V4.46121C1.90827 4.46121 2.81052 4.98212 3.29872 5.82772H3.29873ZM5.6656 4.46122C5.28825 3.80763 4.4525 3.5837 3.79892 3.96105C3.14533 4.3384 2.92139 5.17414 3.29874 5.82773C3.67609 6.48132 4.51184 6.70526 5.16542 6.3279C5.81901 5.95056 6.04295 5.11481 5.6656 4.46122ZM0.931881 1.72822C0.177181 1.72822 -0.434631 2.34003 -0.434631 3.09473C-0.434631 3.84943 0.177181 4.46123 0.931881 4.46123C1.68658 4.46123 2.29839 3.84943 2.29839 3.09473C2.29839 2.34003 1.68658 1.72822 0.931881 1.72822Z" fill="#D1D5DC"/>
<path d="M3.66504 2.46045C3.01145 2.0831 2.1757 2.30703 1.79836 2.96062C1.42101 3.61421 1.64494 4.44995 2.29853 4.8273C2.95211 5.20464 3.78786 4.98072 4.16521 4.32713C4.54255 3.67354 4.31862 2.83779 3.66504 2.46045Z" fill="#D1D5DC"/>
<path d="M3.29872 8.56068L5.66557 9.9272C6.64197 8.236 6.64197 6.15236 5.66557 4.46117L3.29872 5.82768C3.78692 6.67328 3.78692 7.7151 3.29872 8.56069V8.56068ZM5.66558 9.9272C6.04292 9.27361 5.819 8.43786 5.16541 8.06051C4.51182 7.68317 3.67607 7.90709 3.29873 8.56068C2.92138 9.21427 3.14531 10.05 3.7989 10.4274C4.45249 10.8047 5.28823 10.5808 5.66558 9.9272ZM5.66558 4.46117C5.28823 3.80759 4.45249 3.58365 3.7989 3.961C3.14531 4.33835 2.92137 5.1741 3.29873 5.82768C3.67607 6.48127 4.51182 6.70521 5.16541 6.32785C5.819 5.95051 6.04293 5.11476 5.66558 4.46117Z" fill="#D1D5DC"/>
<path d="M6.398 7.19422C6.398 6.43952 5.78619 5.82771 5.03149 5.82771C4.27679 5.82771 3.66498 6.43952 3.66498 7.19422C3.66498 7.94892 4.27679 8.56073 5.03149 8.56073C5.78619 8.56073 6.398 7.94892 6.398 7.19422Z" fill="#D1D5DC"/>
<path d="M0.931881 9.92723V12.6602C2.8847 12.6602 4.68918 11.6184 5.66559 9.92723L3.29874 8.56072C2.81054 9.40631 1.9083 9.92723 0.931891 9.92723H0.931881ZM0.931881 12.6602C1.68658 12.6602 2.29839 12.0484 2.29839 11.2937C2.29839 10.539 1.68658 9.92722 0.931881 9.92722C0.177181 9.92722 -0.434631 10.539 -0.434631 11.2937C-0.434631 12.0484 0.177181 12.6602 0.931881 12.6602ZM5.66559 9.92723C6.04294 9.27365 5.81901 8.43789 5.16542 8.06055C4.51184 7.6832 3.67609 7.90713 3.29874 8.56072C2.9214 9.21431 3.14533 10.0501 3.79891 10.4274C4.4525 10.8047 5.28825 10.5808 5.66559 9.92723Z" fill="#D1D5DC"/>
<path d="M3.66504 11.9279C4.31863 11.5505 4.54257 10.7148 4.16521 10.0612C3.78787 9.40762 2.95212 9.18368 2.29853 9.56104C1.64494 9.93838 1.421 10.7741 1.79836 11.4277C2.1757 12.0813 3.01145 12.3052 3.66504 11.9279Z" fill="#D1D5DC"/>
<path d="M-1.43488 8.56072L-3.80174 9.92724C-2.82533 11.6184 -1.02084 12.6602 0.93198 12.6602V9.92724C-0.044426 9.92724 -0.946671 9.40633 -1.43487 8.56072H-1.43488ZM-3.80174 9.92724C-3.42439 10.5808 -2.58864 10.8048 -1.93505 10.4274C-1.28147 10.0501 -1.05753 9.21431 -1.43488 8.56072C-1.81223 7.90713 -2.64798 7.6832 -3.30157 8.06055C-3.95516 8.4379 -4.17909 9.27365 -3.80174 9.92724ZM0.93198 12.6602C1.68668 12.6602 2.29849 12.0484 2.29849 11.2937C2.29849 10.539 1.68668 9.92722 0.93198 9.92722C0.177279 9.92722 -0.434533 10.539 -0.434533 11.2937C-0.434533 12.0484 0.177279 12.6602 0.93198 12.6602Z" fill="#D1D5DC"/>
<path d="M-1.80102 11.9279C-1.14743 12.3053 -0.311687 12.0814 0.0656571 11.4278C0.443002 10.7742 0.219075 9.93844 -0.434513 9.5611C-1.0881 9.18375 -1.92385 9.40768 -2.30119 10.0613C-2.67854 10.7149 -2.45461 11.5506 -1.80102 11.9279Z" fill="#D1D5DC"/>
<path d="M0.931974 4.46121V1.7282C-1.02085 1.7282 -2.82533 2.77002 -3.80174 4.46121L-1.43489 5.82772C-0.946687 4.98212 -0.0444446 4.46121 0.931961 4.46121H0.931974ZM0.931974 1.7282C0.177274 1.7282 -0.434538 2.34001 -0.434538 3.09471C-0.434538 3.84941 0.177274 4.46122 0.931974 4.46122C1.68667 4.46122 2.29848 3.84941 2.29848 3.09471C2.29848 2.34001 1.68667 1.7282 0.931974 1.7282ZM-3.80174 4.46121C-4.17909 5.1148 -3.95516 5.95054 -3.30157 6.32789C-2.64798 6.70523 -1.81223 6.48131 -1.43489 5.82772C-1.05754 5.17413 -1.28147 4.33838 -1.93506 3.96104C-2.58865 3.58369 -3.4244 3.80762 -3.80174 4.46121Z" fill="#D1D5DC"/>
<path d="M-1.80102 2.46048C-2.45461 2.83783 -2.67854 3.67358 -2.30119 4.32716C-1.92384 4.98075 -1.0881 5.20469 -0.434509 4.82733C0.219079 4.44999 0.443017 3.61424 0.0656617 2.96066C-0.311683 2.30707 -1.14743 2.08313 -1.80102 2.46048Z" fill="#D1D5DC"/>
<path d="M6.39795 -2.2732C5.74436 -2.65055 4.90861 -2.42662 4.53127 -1.77303C4.15392 -1.11944 4.37785 -0.283695 5.03144 0.0936494C5.68502 0.470994 6.52077 0.247067 6.89812 -0.406521C7.27546 -1.06011 7.05153 -1.89586 6.39795 -2.2732Z" fill="#515258"/>
<path d="M8.03254 11.2937L10.3994 12.6602C12.3522 9.27784 12.3522 5.11057 10.3994 1.72818L8.03254 3.09469C9.49716 5.63148 9.49716 8.75694 8.03254 11.2937ZM10.3994 12.6602C10.7767 12.0066 10.5528 11.1709 9.89923 10.7935C9.24564 10.4162 8.4099 10.6401 8.03255 11.2937C7.65521 11.9473 7.87913 12.783 8.53272 13.1604C9.18631 13.5377 10.0221 13.3138 10.3994 12.6602ZM10.3994 1.72818C10.0221 1.07459 9.18631 0.850644 8.53272 1.228C7.87913 1.60534 7.6552 2.4411 8.03255 3.09469C8.4099 3.74827 9.24564 3.97221 9.89923 3.59486C10.5528 3.21751 10.7768 2.38177 10.3994 1.72818Z" fill="#515258"/>
<path d="M11.864 7.19422C11.864 6.43952 11.2522 5.82771 10.4975 5.82771C9.74279 5.82771 9.13098 6.43952 9.13098 7.19422C9.13098 7.94892 9.74279 8.56073 10.4975 8.56073C11.2522 8.56073 11.864 7.94892 11.864 7.19422Z" fill="#515258"/>
<path d="M0.931881 15.3932V18.1263C4.83753 18.1263 8.44649 16.0426 10.3993 12.6602L8.03246 11.2937C6.56784 13.8305 3.86112 15.3932 0.931891 15.3932H0.931881ZM0.931881 18.1263C1.68658 18.1263 2.29839 17.5144 2.29839 16.7597C2.29839 16.005 1.68658 15.3932 0.931881 15.3932C0.177181 15.3932 -0.434631 16.005 -0.434631 16.7597C-0.434631 17.5144 0.177181 18.1263 0.931881 18.1263ZM10.3993 12.6602C10.7767 12.0066 10.5527 11.1709 9.89914 10.7935C9.24555 10.4162 8.4098 10.6401 8.03246 11.2937C7.65511 11.9473 7.87904 12.7831 8.53263 13.1604C9.18622 13.5377 10.022 13.3138 10.3993 12.6602Z" fill="#515258"/>
<path d="M6.39795 16.6617C7.05154 16.2843 7.27548 15.4486 6.89812 14.795C6.52078 14.1414 5.68503 13.9174 5.03144 14.2948C4.37785 14.6721 4.15391 15.5079 4.53127 16.1615C4.90861 16.8151 5.74436 17.039 6.39795 16.6617Z" fill="#515258"/>
<path d="M-6.16871 11.2937L-8.53556 12.6602C-6.58274 16.0426 -2.97378 18.1263 0.931868 18.1263V15.3933C-1.99736 15.3933 -4.70409 13.8305 -6.1687 11.2937H-6.16871ZM-8.53556 12.6602C-8.15822 13.3138 -7.32247 13.5378 -6.66888 13.1604C-6.0153 12.7831 -5.79135 11.9473 -6.16871 11.2937C-6.54605 10.6401 -7.3818 10.4162 -8.03539 10.7936C-8.68898 11.1709 -8.91292 12.0066 -8.53556 12.6602ZM0.931868 18.1263C1.68657 18.1263 2.29838 17.5145 2.29838 16.7598C2.29838 16.0051 1.68657 15.3932 0.931868 15.3932C0.177168 15.3932 -0.434645 16.0051 -0.434645 16.7598C-0.434645 17.5145 0.177168 18.1263 0.931868 18.1263Z" fill="#515258"/>
<path d="M0.931864 -1.00483V-3.73784C-2.97378 -3.73784 -6.58275 -1.65421 -8.53557 1.72818L-6.16871 3.09469C-4.7041 0.557896 -1.99738 -1.00483 0.931849 -1.00483H0.931864ZM0.931864 -3.73784C0.177163 -3.73784 -0.434649 -3.12603 -0.434649 -2.37133C-0.434649 -1.61663 0.177163 -1.00482 0.931864 -1.00482C1.68656 -1.00482 2.29837 -1.61663 2.29837 -2.37133C2.29837 -3.12603 1.68656 -3.73784 0.931864 -3.73784ZM-8.53557 1.72819C-8.91291 2.38178 -8.68899 3.21753 -8.0354 3.59487C-7.38181 3.97222 -6.54606 3.74829 -6.16871 3.0947C-5.79137 2.44111 -6.0153 1.60536 -6.66889 1.22801C-7.32248 0.850669 -8.15822 1.0746 -8.53557 1.72819Z" fill="#515258"/>
<path d="M24.6006 12.6602L26.9674 11.2937C25.0146 7.91135 21.4056 5.82771 17.5 5.82771V8.56072C20.4292 8.56072 23.1359 10.1234 24.6006 12.6602H24.6006ZM26.9674 11.2937C26.5901 10.6402 25.7543 10.4162 25.1007 10.7936C24.4472 11.1709 24.2232 12.0067 24.6006 12.6603C24.9779 13.3138 25.8137 13.5378 26.4673 13.1604C27.1208 12.7831 27.3448 11.9473 26.9674 11.2937ZM17.5 5.82771C16.7453 5.82771 16.1335 6.43952 16.1335 7.19422C16.1335 7.94892 16.7453 8.56073 17.5 8.56073C18.2547 8.56073 18.8665 7.94892 18.8665 7.19422C18.8665 6.43952 18.2547 5.82771 17.5 5.82771Z" fill="#515258"/>
<path d="M22.9661 7.29236C22.3125 6.91501 21.4767 7.13894 21.0994 7.79253C20.722 8.44612 20.946 9.28186 21.5996 9.65921C22.2531 10.0366 23.0889 9.81263 23.4662 9.15904C23.8436 8.50545 23.6196 7.6697 22.9661 7.29236Z" fill="#515258"/>
<path d="M17.5 5.82769V8.56069C21.4056 8.56069 25.0146 6.47706 26.9674 3.09468L24.6006 1.72817C23.136 4.26496 20.4292 5.82769 17.5 5.82769H17.5ZM17.5 8.56069C18.2547 8.56069 18.8665 7.94888 18.8665 7.19418C18.8665 6.43948 18.2547 5.82767 17.5 5.82767C16.7453 5.82767 16.1335 6.43948 16.1335 7.19418C16.1335 7.94888 16.7453 8.56069 17.5 8.56069ZM26.9674 3.09468C27.3448 2.44109 27.1208 1.60534 26.4672 1.228C25.8137 0.850652 24.9779 1.07458 24.6006 1.72817C24.2232 2.38176 24.4472 3.2175 25.1007 3.59485C25.7543 3.97219 26.5901 3.74826 26.9674 3.09468Z" fill="#515258"/>
<path d="M22.9659 7.0961C23.6195 6.71876 23.8434 5.88301 23.4661 5.22942C23.0887 4.57584 22.253 4.3519 21.5994 4.72925C20.9458 5.1066 20.7218 5.94234 21.0992 6.59593C21.4765 7.24952 22.3123 7.47346 22.9659 7.0961Z" fill="#515258"/>
<path d="M26.9675 3.09467L24.6006 1.72816C22.6478 5.11054 22.6478 9.27781 24.6006 12.6602L26.9675 11.2937C25.5028 8.75691 25.5028 5.63145 26.9675 3.09467ZM24.6006 1.72817C24.2232 2.38176 24.4472 3.21751 25.1008 3.59485C25.7543 3.9722 26.5901 3.74827 26.9674 3.09468C27.3448 2.44109 27.1209 1.60534 26.4673 1.228C25.8137 0.85065 24.9779 1.07458 24.6006 1.72817ZM24.6006 12.6602C24.9779 13.3138 25.8137 13.5377 26.4673 13.1604C27.1209 12.783 27.3448 11.9473 26.9674 11.2937C26.5901 10.6401 25.7543 10.4162 25.1008 10.7935C24.4472 11.1709 24.2232 12.0066 24.6006 12.6602Z" fill="#515258"/>
<path d="M23.136 7.19422C23.136 7.94892 23.7478 8.56073 24.5025 8.56073C25.2572 8.56073 25.869 7.94892 25.869 7.19422C25.869 6.43952 25.2572 5.82771 24.5025 5.82771C23.7478 5.82771 23.136 6.43952 23.136 7.19422Z" fill="#515258"/>
<path d="M21.7693 7.19422C21.7693 7.94892 22.3811 8.56073 23.1358 8.56073C23.8905 8.56073 24.5023 7.94892 24.5023 7.19422C24.5023 6.43952 23.8905 5.82771 23.1358 5.82771C22.3811 5.82771 21.7693 6.43952 21.7693 7.19422Z" fill="#515258"/>
<path d="M17.6699 7.19422C17.6699 7.94892 18.2817 8.56073 19.0364 8.56073C19.7911 8.56073 20.4029 7.94892 20.4029 7.19422C20.4029 6.43952 19.7911 5.82771 19.0364 5.82771C18.2817 5.82771 17.6699 6.43952 17.6699 7.19422Z" fill="#515258"/>
<path d="M26.9675 3.09467L24.6006 1.72816C22.6478 5.11054 22.6478 9.27781 24.6006 12.6602L26.9675 11.2937C25.5028 8.75691 25.5028 5.63145 26.9675 3.09467ZM24.6006 1.72817C24.2232 2.38176 24.4472 3.21751 25.1008 3.59485C25.7543 3.9722 26.5901 3.74827 26.9674 3.09468C27.3448 2.44109 27.1209 1.60534 26.4673 1.228C25.8137 0.85065 24.9779 1.07458 24.6006 1.72817ZM24.6006 12.6602C24.9779 13.3138 25.8137 13.5377 26.4673 13.1604C27.1209 12.783 27.3448 11.9473 26.9674 11.2937C26.5901 10.6401 25.7543 10.4162 25.1008 10.7935C24.4472 11.1709 24.2232 12.0066 24.6006 12.6602Z" fill="#515258"/>
<path d="M23.136 7.19422C23.136 7.94892 23.7478 8.56073 24.5025 8.56073C25.2572 8.56073 25.869 7.94892 25.869 7.19422C25.869 6.43952 25.2572 5.82771 24.5025 5.82771C23.7478 5.82771 23.136 6.43952 23.136 7.19422Z" fill="#515258"/>
<path d="M17.5 5.82769V8.56069C21.4056 8.56069 25.0146 6.47706 26.9674 3.09468L24.6006 1.72817C23.136 4.26496 20.4292 5.82769 17.5 5.82769H17.5ZM17.5 8.56069C18.2547 8.56069 18.8665 7.94888 18.8665 7.19418C18.8665 6.43948 18.2547 5.82767 17.5 5.82767C16.7453 5.82767 16.1335 6.43948 16.1335 7.19418C16.1335 7.94888 16.7453 8.56069 17.5 8.56069ZM26.9674 3.09468C27.3448 2.44109 27.1208 1.60534 26.4672 1.228C25.8137 0.850652 24.9779 1.07458 24.6006 1.72817C24.2232 2.38176 24.4472 3.2175 25.1007 3.59485C25.7543 3.97219 26.5901 3.74826 26.9674 3.09468Z" fill="#515258"/>
<path d="M22.9659 7.0961C23.6195 6.71876 23.8434 5.88301 23.4661 5.22942C23.0887 4.57584 22.253 4.3519 21.5994 4.72925C20.9458 5.1066 20.7218 5.94234 21.0992 6.59593C21.4765 7.24952 22.3123 7.47346 22.9659 7.0961Z" fill="#515258"/>
<path d="M26.9675 3.09467L24.6006 1.72816C22.6478 5.11054 22.6478 9.27781 24.6006 12.6602L26.9675 11.2937C25.5028 8.75691 25.5028 5.63145 26.9675 3.09467ZM24.6006 1.72817C24.2232 2.38176 24.4472 3.21751 25.1008 3.59485C25.7543 3.9722 26.5901 3.74827 26.9674 3.09468C27.3448 2.44109 27.1209 1.60534 26.4673 1.228C25.8137 0.85065 24.9779 1.07458 24.6006 1.72817ZM24.6006 12.6602C24.9779 13.3138 25.8137 13.5377 26.4673 13.1604C27.1209 12.783 27.3448 11.9473 26.9674 11.2937C26.5901 10.6401 25.7543 10.4162 25.1008 10.7935C24.4472 11.1709 24.2232 12.0066 24.6006 12.6602Z" fill="#515258"/>
<path d="M23.136 7.19422C23.136 7.94892 23.7478 8.56073 24.5025 8.56073C25.2572 8.56073 25.869 7.94892 25.869 7.19422C25.869 6.43952 25.2572 5.82771 24.5025 5.82771C23.7478 5.82771 23.136 6.43952 23.136 7.19422Z" fill="#515258"/>
<path d="M24.6006 12.6602L26.9674 11.2937C25.0146 7.91135 21.4056 5.82771 17.5 5.82771V8.56072C20.4292 8.56072 23.1359 10.1234 24.6006 12.6602H24.6006ZM26.9674 11.2937C26.5901 10.6402 25.7543 10.4162 25.1007 10.7936C24.4472 11.1709 24.2232 12.0067 24.6006 12.6603C24.9779 13.3138 25.8137 13.5378 26.4673 13.1604C27.1208 12.7831 27.3448 11.9473 26.9674 11.2937ZM17.5 5.82771C16.7453 5.82771 16.1335 6.43952 16.1335 7.19422C16.1335 7.94892 16.7453 8.56073 17.5 8.56073C18.2547 8.56073 18.8665 7.94892 18.8665 7.19422C18.8665 6.43952 18.2547 5.82771 17.5 5.82771Z" fill="#515258"/>
<path d="M22.9661 7.29236C22.3125 6.91501 21.4767 7.13894 21.0994 7.79253C20.722 8.44612 20.946 9.28186 21.5996 9.65921C22.2531 10.0366 23.0889 9.81263 23.4662 9.15904C23.8436 8.50545 23.6196 7.6697 22.9661 7.29236Z" fill="#515258"/>
<path d="M23.6493 6.10886C22.9957 5.73151 22.16 5.95544 21.7826 6.60903C21.4053 7.26261 21.6292 8.09836 22.2828 8.47571C22.9364 8.85305 23.7721 8.62912 24.1495 7.97554C24.5268 7.32195 24.3029 6.4862 23.6493 6.10886Z" fill="#515258"/>
<path d="M17.5 24.9588V27.6918C21.4056 27.6918 25.0146 25.6082 26.9674 22.2258L24.6006 20.8593C23.136 23.3961 20.4292 24.9588 17.5 24.9588H17.5ZM17.5 27.6918C18.2547 27.6918 18.8665 27.08 18.8665 26.3253C18.8665 25.5706 18.2547 24.9588 17.5 24.9588C16.7453 24.9588 16.1335 25.5706 16.1335 26.3253C16.1335 27.08 16.7453 27.6918 17.5 27.6918ZM26.9674 22.2258C27.3448 21.5722 27.1208 20.7364 26.4672 20.3591C25.8137 19.9818 24.9779 20.2057 24.6006 20.8593C24.2232 21.5129 24.4472 22.3486 25.1007 22.726C25.7543 23.1033 26.5901 22.8794 26.9674 22.2258Z" fill="#515258"/>
<path d="M22.9659 26.2272C23.6195 25.8498 23.8434 25.0141 23.4661 24.3605C23.0887 23.7069 22.253 23.483 21.5994 23.8603C20.9458 24.2377 20.7218 25.0734 21.0992 25.727C21.4765 26.3806 22.3123 26.6045 22.9659 26.2272Z" fill="#515258"/>
<path d="M8.03254 30.4248L10.3994 31.7913C12.3522 28.4089 12.3522 24.2417 10.3994 20.8593L8.03254 22.2258C9.49716 24.7626 9.49716 27.888 8.03254 30.4248ZM10.3994 31.7913C10.7767 31.1377 10.5528 30.302 9.89923 29.9246C9.24564 29.5473 8.4099 29.7712 8.03255 30.4248C7.65521 31.0784 7.87913 31.9141 8.53272 32.2915C9.18631 32.6688 10.0221 32.4449 10.3994 31.7913ZM10.3994 20.8593C10.0221 20.2057 9.18631 19.9817 8.53272 20.3591C7.87913 20.7364 7.6552 21.5722 8.03255 22.2258C8.4099 22.8794 9.24564 23.1033 9.89923 22.726C10.5528 22.3486 10.7768 21.5129 10.3994 20.8593Z" fill="#515258"/>
<path d="M10.3994 20.8593L8.03256 22.2258C9.98539 25.6082 13.5943 27.6918 17.5 27.6918V24.9588C14.5708 24.9588 11.864 23.3961 10.3994 20.8593H10.3994ZM8.03255 22.2258C8.4099 22.8794 9.24565 23.1033 9.89923 22.726C10.5528 22.3486 10.7768 21.5129 10.3994 20.8593C10.0221 20.2057 9.18631 19.9817 8.53272 20.3591C7.87914 20.7364 7.6552 21.5722 8.03255 22.2258ZM17.5 27.6918C18.2547 27.6918 18.8665 27.08 18.8665 26.3253C18.8665 25.5706 18.2547 24.9588 17.5 24.9588C16.7453 24.9588 16.1335 25.5706 16.1335 26.3253C16.1335 27.08 16.7453 27.6918 17.5 27.6918Z" fill="#515258"/>
<path d="M12.0339 26.2272C12.6875 26.6045 13.5233 26.3806 13.9006 25.727C14.278 25.0734 14.054 24.2377 13.4005 23.8603C12.7469 23.483 11.9111 23.7069 11.5338 24.3605C11.1564 25.0141 11.3804 25.8498 12.0339 26.2272Z" fill="#515258"/>
<path d="M8.03244 22.2257L10.3993 20.8592C8.44648 17.4769 4.83751 15.3932 0.931868 15.3932V18.1262C3.8611 18.1262 6.56783 19.689 8.03244 22.2257H8.03244ZM10.3993 20.8592C10.022 20.2057 9.18622 19.9817 8.53263 20.3591C7.87904 20.7364 7.6551 21.5722 8.03246 22.2258C8.4098 22.8793 9.24555 23.1033 9.89914 22.7259C10.5527 22.3486 10.7767 21.5128 10.3993 20.8592ZM0.931881 15.3932C0.177181 15.3932 -0.434631 16.005 -0.434631 16.7597C-0.434631 17.5144 0.177181 18.1262 0.931881 18.1262C1.68658 18.1262 2.29839 17.5144 2.29839 16.7597C2.29839 16.005 1.68658 15.3932 0.931881 15.3932Z" fill="#515258"/>
<path d="M6.39795 16.8578C5.74436 16.4805 4.90861 16.7044 4.53127 17.358C4.15392 18.0116 4.37785 18.8474 5.03144 19.2247C5.68502 19.602 6.52077 19.3781 6.89812 18.7245C7.27546 18.0709 7.05153 17.2352 6.39795 16.8578Z" fill="#515258"/>
<path d="M0.931881 15.3932V18.1263C4.83753 18.1263 8.44649 16.0426 10.3993 12.6602L8.03246 11.2937C6.56784 13.8305 3.86112 15.3932 0.931891 15.3932H0.931881ZM0.931881 18.1263C1.68658 18.1263 2.29839 17.5144 2.29839 16.7597C2.29839 16.005 1.68658 15.3932 0.931881 15.3932C0.177181 15.3932 -0.434631 16.005 -0.434631 16.7597C-0.434631 17.5144 0.177181 18.1263 0.931881 18.1263ZM10.3993 12.6602C10.7767 12.0066 10.5527 11.1709 9.89914 10.7935C9.24555 10.4162 8.4098 10.6401 8.03246 11.2937C7.65511 11.9473 7.87904 12.7831 8.53263 13.1604C9.18622 13.5377 10.022 13.3138 10.3993 12.6602Z" fill="#515258"/>
<path d="M6.39795 16.6617C7.05154 16.2843 7.27548 15.4486 6.89812 14.795C6.52078 14.1414 5.68503 13.9174 5.03144 14.2948C4.37785 14.6721 4.15391 15.5079 4.53127 16.1615C4.90861 16.8151 5.74436 17.039 6.39795 16.6617Z" fill="#515258"/>
<path d="M10.3993 12.6603L8.03249 11.2938C6.07967 14.6762 6.07967 18.8434 8.03249 22.2258L10.3993 20.8593C8.93472 18.3225 8.93472 15.1971 10.3993 12.6603ZM8.03247 11.2938C7.65513 11.9474 7.87906 12.7831 8.53265 13.1605C9.18624 13.5378 10.022 13.3139 10.3993 12.6603C10.7767 12.0067 10.5527 11.171 9.89916 10.7936C9.24557 10.4163 8.40982 10.6402 8.03247 11.2938ZM8.03247 22.2258C8.40982 22.8794 9.24557 23.1033 9.89916 22.726C10.5527 22.3486 10.7767 21.5129 10.3993 20.8593C10.022 20.2057 9.18624 19.9818 8.53265 20.3591C7.87906 20.7365 7.65512 21.5722 8.03247 22.2258Z" fill="#515258"/>
<path d="M6.56787 16.7597C6.56787 17.5144 7.17968 18.1262 7.93438 18.1262C8.68908 18.1262 9.30089 17.5144 9.30089 16.7597C9.30089 16.005 8.68908 15.3932 7.93438 15.3932C7.17968 15.3932 6.56787 16.005 6.56787 16.7597Z" fill="#515258"/>
<path d="M5.20142 16.7597C5.20142 17.5144 5.81323 18.1262 6.56793 18.1262C7.32263 18.1262 7.93444 17.5144 7.93444 16.7597C7.93444 16.005 7.32263 15.3932 6.56793 15.3932C5.81323 15.3932 5.20142 16.005 5.20142 16.7597Z" fill="#515258"/>
<path d="M8.03254 11.2937L10.3994 12.6602C12.3522 9.27784 12.3522 5.11057 10.3994 1.72818L8.03254 3.09469C9.49716 5.63148 9.49716 8.75694 8.03254 11.2937ZM10.3994 12.6602C10.7767 12.0066 10.5528 11.1709 9.89923 10.7935C9.24564 10.4162 8.4099 10.6401 8.03255 11.2937C7.65521 11.9473 7.87913 12.783 8.53272 13.1604C9.18631 13.5377 10.0221 13.3138 10.3994 12.6602ZM10.3994 1.72818C10.0221 1.07459 9.18631 0.850644 8.53272 1.228C7.87913 1.60534 7.6552 2.4411 8.03255 3.09469C8.4099 3.74827 9.24564 3.97221 9.89923 3.59486C10.5528 3.21751 10.7768 2.38177 10.3994 1.72818Z" fill="#515258"/>
<path d="M11.864 7.19422C11.864 6.43952 11.2522 5.82771 10.4975 5.82771C9.74279 5.82771 9.13098 6.43952 9.13098 7.19422C9.13098 7.94892 9.74279 8.56073 10.4975 8.56073C11.2522 8.56073 11.864 7.94892 11.864 7.19422Z" fill="#515258"/>
<path d="M10.3994 1.72819L8.03256 3.09469C9.98539 6.47708 13.5943 8.56071 17.5 8.56071V5.8277C14.5708 5.8277 11.864 4.26498 10.3994 1.72819H10.3994ZM8.03255 3.09468C8.4099 3.74827 9.24565 3.97221 9.89923 3.59485C10.5528 3.21751 10.7768 2.38176 10.3994 1.72817C10.0221 1.07458 9.18631 0.850646 8.53272 1.228C7.87914 1.60535 7.6552 2.44109 8.03255 3.09468ZM17.5 8.5607C18.2547 8.5607 18.8665 7.94889 18.8665 7.19419C18.8665 6.43949 18.2547 5.82768 17.5 5.82768C16.7453 5.82768 16.1335 6.43949 16.1335 7.19419C16.1335 7.94889 16.7453 8.5607 17.5 8.5607Z" fill="#515258"/>
<path d="M12.0339 7.0961C12.6875 7.47344 13.5233 7.24952 13.9006 6.59593C14.278 5.94234 14.054 5.10659 13.4005 4.72925C12.7469 4.3519 11.9111 4.57583 11.5338 5.22942C11.1564 5.88301 11.3804 6.71875 12.0339 7.0961Z" fill="#515258"/>
<path d="M17.5 8.56072V5.82771C13.5943 5.82771 9.98537 7.91135 8.03255 11.2937L10.3994 12.6602C11.864 10.1234 14.5707 8.56072 17.5 8.56072H17.5ZM17.5 5.82771C16.7453 5.82771 16.1335 6.43952 16.1335 7.19422C16.1335 7.94892 16.7453 8.56073 17.5 8.56073C18.2547 8.56073 18.8665 7.94892 18.8665 7.19422C18.8665 6.43952 18.2547 5.82771 17.5 5.82771ZM8.03255 11.2937C7.6552 11.9473 7.87913 12.7831 8.53272 13.1604C9.18631 13.5378 10.0221 13.3138 10.3994 12.6603C10.7767 12.0067 10.5528 11.1709 9.89923 10.7936C9.24564 10.4162 8.40989 10.6402 8.03255 11.2937Z" fill="#515258"/>
<path d="M12.0339 7.29236C11.3804 7.66971 11.1564 8.50545 11.5338 9.15904C11.9111 9.81263 12.7469 10.0366 13.4005 9.65921C14.054 9.28187 14.278 8.44612 13.9006 7.79253C13.5233 7.13895 12.6875 6.91501 12.0339 7.29236Z" fill="#515258"/>
<path d="M11.3507 6.10889C10.6971 6.48624 10.4732 7.32198 10.8505 7.97557C11.2279 8.62916 12.0636 8.8531 12.7172 8.47574C13.3708 8.0984 13.5948 7.26265 13.2174 6.60906C12.8401 5.95547 12.0043 5.73154 11.3507 6.10889Z" fill="#515258"/>
<path d="M1.10187 16.7597C1.10187 17.5144 1.71368 18.1262 2.46838 18.1262C3.22308 18.1262 3.83489 17.5144 3.83489 16.7597C3.83489 16.005 3.22308 15.3932 2.46838 15.3932C1.71368 15.3932 1.10187 16.005 1.10187 16.7597Z" fill="#515258"/>
<path d="M19.8668 15.3932L22.2337 14.0267C21.2573 12.3355 19.4528 11.2937 17.5 11.2937V14.0267C18.4764 14.0267 19.3786 14.5476 19.8668 15.3932H19.8668ZM22.2337 14.0267C21.8564 13.3731 21.0206 13.1492 20.367 13.5265C19.7134 13.9039 19.4895 14.7396 19.8669 15.3932C20.2442 16.0468 21.0799 16.2708 21.7335 15.8934C22.3871 15.5161 22.6111 14.6803 22.2337 14.0267ZM17.5 11.2937C16.7453 11.2937 16.1335 11.9055 16.1335 12.6602C16.1335 13.4149 16.7453 14.0267 17.5 14.0267C18.2547 14.0267 18.8665 13.4149 18.8665 12.6602C18.8665 11.9055 18.2547 11.2937 17.5 11.2937Z" fill="#515258"/>
<path d="M20.233 12.026C19.5794 11.6487 18.7436 11.8726 18.3663 12.5262C17.9889 13.1798 18.2129 14.0155 18.8665 14.3929C19.52 14.7702 20.3558 14.5463 20.7331 13.8927C21.1105 13.2391 20.8866 12.4034 20.233 12.026Z" fill="#515258"/>
<path d="M19.8668 18.1263L22.2337 19.4928C23.2101 17.8016 23.2101 15.7179 22.2337 14.0268L19.8668 15.3933C20.355 16.2389 20.355 17.2807 19.8668 18.1263V18.1263ZM22.2337 19.4928C22.611 18.8392 22.3871 18.0034 21.7335 17.6261C21.0799 17.2487 20.2442 17.4727 19.8668 18.1263C19.4895 18.7798 19.7134 19.6156 20.367 19.9929C21.0206 20.3703 21.8563 20.1464 22.2337 19.4928ZM22.2337 14.0267C21.8563 13.3732 21.0206 13.1492 20.367 13.5266C19.7134 13.9039 19.4895 14.7397 19.8668 15.3933C20.2442 16.0468 21.0799 16.2708 21.7335 15.8934C22.3871 15.5161 22.611 14.6803 22.2337 14.0267Z" fill="#515258"/>
<path d="M22.9659 16.7597C22.9659 16.005 22.3541 15.3932 21.5994 15.3932C20.8447 15.3932 20.2328 16.005 20.2328 16.7597C20.2328 17.5144 20.8447 18.1262 21.5994 18.1262C22.3541 18.1262 22.9659 17.5144 22.9659 16.7597Z" fill="#515258"/>
<path d="M17.5 19.4928V22.2258C19.4528 22.2258 21.2573 21.184 22.2337 19.4928L19.8669 18.1263C19.3787 18.9719 18.4764 19.4928 17.5 19.4928H17.5ZM17.5 22.2258C18.2547 22.2258 18.8665 21.614 18.8665 20.8593C18.8665 20.1046 18.2547 19.4928 17.5 19.4928C16.7453 19.4928 16.1335 20.1046 16.1335 20.8593C16.1335 21.614 16.7453 22.2258 17.5 22.2258ZM22.2337 19.4928C22.6111 18.8392 22.3871 18.0034 21.7335 17.6261C21.0799 17.2488 20.2442 17.4727 19.8669 18.1263C19.4895 18.7799 19.7134 19.6156 20.367 19.993C21.0206 20.3703 21.8564 20.1464 22.2337 19.4928Z" fill="#515258"/>
<path d="M20.233 21.4934C20.8866 21.1161 21.1105 20.2804 20.7331 19.6268C20.3558 18.9732 19.5201 18.7492 18.8665 19.1266C18.2129 19.5039 17.9889 20.3397 18.3663 20.9933C18.7436 21.6469 19.5794 21.8708 20.233 21.4934Z" fill="#515258"/>
<path d="M15.1332 18.1263L12.7663 19.4928C13.7427 21.184 15.5472 22.2258 17.5 22.2258V19.4928C16.5236 19.4928 15.6214 18.9719 15.1332 18.1263H15.1332ZM12.7663 19.4928C13.1437 20.1464 13.9794 20.3703 14.633 19.993C15.2866 19.6156 15.5105 18.7799 15.1332 18.1263C14.7558 17.4727 13.9201 17.2487 13.2665 17.6261C12.6129 18.0034 12.389 18.8392 12.7663 19.4928ZM17.5 22.2258C18.2547 22.2258 18.8665 21.614 18.8665 20.8593C18.8665 20.1046 18.2547 19.4928 17.5 19.4928C16.7453 19.4928 16.1335 20.1046 16.1335 20.8593C16.1335 21.614 16.7453 22.2258 17.5 22.2258Z" fill="#515258"/>
<path d="M14.7668 21.4935C15.4204 21.8708 16.2562 21.6469 16.6335 20.9933C17.0109 20.3397 16.7869 19.504 16.1334 19.1266C15.4798 18.7493 14.644 18.9732 14.2667 19.6268C13.8893 20.2804 14.1133 21.1162 14.7668 21.4935Z" fill="#515258"/>
<path d="M15.1331 15.3932L12.7662 14.0267C11.7898 15.7179 11.7898 17.8016 12.7662 19.4927L15.1331 18.1262C14.6449 17.2806 14.6449 16.2388 15.1331 15.3932V15.3932ZM12.7662 14.0267C12.3889 14.6803 12.6128 15.5161 13.2664 15.8934C13.92 16.2708 14.7557 16.0468 15.1331 15.3933C15.5104 14.7397 15.2865 13.9039 14.6329 13.5266C13.9793 13.1492 13.1436 13.3731 12.7662 14.0267ZM12.7662 19.4928C13.1436 20.1463 13.9793 20.3703 14.6329 19.9929C15.2865 19.6156 15.5104 18.7798 15.1331 18.1263C14.7557 17.4727 13.92 17.2487 13.2664 17.6261C12.6128 18.0034 12.3889 18.8392 12.7662 19.4928Z" fill="#515258"/>
<path d="M12.0339 16.7597C12.0339 17.5144 12.6457 18.1262 13.4004 18.1262C14.1551 18.1262 14.767 17.5144 14.767 16.7597C14.767 16.005 14.1551 15.3932 13.4004 15.3932C12.6457 15.3932 12.0339 16.005 12.0339 16.7597Z" fill="#515258"/>
<path d="M17.5 14.0267V11.2937C15.5472 11.2937 13.7427 12.3355 12.7663 14.0267L15.1332 15.3933C15.6214 14.5477 16.5236 14.0267 17.5 14.0267H17.5ZM17.5 11.2937C16.7453 11.2937 16.1335 11.9055 16.1335 12.6602C16.1335 13.4149 16.7453 14.0268 17.5 14.0268C18.2547 14.0268 18.8665 13.4149 18.8665 12.6602C18.8665 11.9055 18.2547 11.2937 17.5 11.2937ZM12.7663 14.0267C12.389 14.6803 12.6129 15.5161 13.2665 15.8934C13.9201 16.2708 14.7558 16.0468 15.1332 15.3933C15.5105 14.7397 15.2866 13.9039 14.633 13.5266C13.9794 13.1492 13.1437 13.3731 12.7663 14.0267Z" fill="#515258"/>
<path d="M14.7669 12.026C14.1133 12.4034 13.8893 13.2391 14.2667 13.8927C14.644 14.5463 15.4798 14.7702 16.1334 14.3929C16.787 14.0155 17.0109 13.1798 16.6335 12.5262C16.2562 11.8726 15.4204 11.6487 14.7669 12.026Z" fill="#515258"/>
<path d="M24.6006 12.6602L26.9674 11.2937C25.0146 7.91135 21.4056 5.82771 17.5 5.82771V8.56072C20.4292 8.56072 23.1359 10.1234 24.6006 12.6602H24.6006ZM26.9674 11.2937C26.5901 10.6402 25.7543 10.4162 25.1007 10.7936C24.4472 11.1709 24.2232 12.0067 24.6006 12.6603C24.9779 13.3138 25.8137 13.5378 26.4673 13.1604C27.1208 12.7831 27.3448 11.9473 26.9674 11.2937ZM17.5 5.82771C16.7453 5.82771 16.1335 6.43952 16.1335 7.19422C16.1335 7.94892 16.7453 8.56073 17.5 8.56073C18.2547 8.56073 18.8665 7.94892 18.8665 7.19422C18.8665 6.43952 18.2547 5.82771 17.5 5.82771Z" fill="#515258"/>
<path d="M22.9661 7.29236C22.3125 6.91501 21.4767 7.13894 21.0994 7.79253C20.722 8.44612 20.946 9.28186 21.5996 9.65921C22.2531 10.0366 23.0889 9.81263 23.4662 9.15904C23.8436 8.50545 23.6196 7.6697 22.9661 7.29236Z" fill="#515258"/>
<path d="M17.5 24.9588V27.6918C21.4056 27.6918 25.0146 25.6082 26.9674 22.2258L24.6006 20.8593C23.136 23.3961 20.4292 24.9588 17.5 24.9588H17.5ZM17.5 27.6918C18.2547 27.6918 18.8665 27.08 18.8665 26.3253C18.8665 25.5706 18.2547 24.9588 17.5 24.9588C16.7453 24.9588 16.1335 25.5706 16.1335 26.3253C16.1335 27.08 16.7453 27.6918 17.5 27.6918ZM26.9674 22.2258C27.3448 21.5722 27.1208 20.7364 26.4672 20.3591C25.8137 19.9818 24.9779 20.2057 24.6006 20.8593C24.2232 21.5129 24.4472 22.3486 25.1007 22.726C25.7543 23.1033 26.5901 22.8794 26.9674 22.2258Z" fill="#515258"/>
<path d="M22.9659 26.2272C23.6195 25.8498 23.8434 25.0141 23.4661 24.3605C23.0887 23.7069 22.253 23.483 21.5994 23.8603C20.9458 24.2377 20.7218 25.0734 21.0992 25.727C21.4765 26.3806 22.3123 26.6045 22.9659 26.2272Z" fill="#515258"/>
<path d="M10.3994 20.8593L8.03256 22.2258C9.98539 25.6082 13.5943 27.6918 17.5 27.6918V24.9588C14.5708 24.9588 11.864 23.3961 10.3994 20.8593H10.3994ZM8.03255 22.2258C8.4099 22.8794 9.24565 23.1033 9.89923 22.726C10.5528 22.3486 10.7768 21.5129 10.3994 20.8593C10.0221 20.2057 9.18631 19.9817 8.53272 20.3591C7.87914 20.7364 7.6552 21.5722 8.03255 22.2258ZM17.5 27.6918C18.2547 27.6918 18.8665 27.08 18.8665 26.3253C18.8665 25.5706 18.2547 24.9588 17.5 24.9588C16.7453 24.9588 16.1335 25.5706 16.1335 26.3253C16.1335 27.08 16.7453 27.6918 17.5 27.6918Z" fill="#515258"/>
<path d="M12.0339 26.2272C12.6875 26.6045 13.5233 26.3806 13.9006 25.727C14.278 25.0734 14.054 24.2377 13.4005 23.8603C12.7469 23.483 11.9111 23.7069 11.5338 24.3605C11.1564 25.0141 11.3804 25.8498 12.0339 26.2272Z" fill="#515258"/>
<path d="M10.3993 12.6603L8.03249 11.2938C6.07967 14.6762 6.07967 18.8434 8.03249 22.2258L10.3993 20.8593C8.93472 18.3225 8.93472 15.1971 10.3993 12.6603ZM8.03247 11.2938C7.65513 11.9474 7.87906 12.7831 8.53265 13.1605C9.18624 13.5378 10.022 13.3139 10.3993 12.6603C10.7767 12.0067 10.5527 11.171 9.89916 10.7936C9.24557 10.4163 8.40982 10.6402 8.03247 11.2938ZM8.03247 22.2258C8.40982 22.8794 9.24557 23.1033 9.89916 22.726C10.5527 22.3486 10.7767 21.5129 10.3993 20.8593C10.022 20.2057 9.18624 19.9818 8.53265 20.3591C7.87906 20.7365 7.65512 21.5722 8.03247 22.2258Z" fill="#515258"/>
<path d="M6.56787 16.7597C6.56787 17.5144 7.17968 18.1262 7.93438 18.1262C8.68908 18.1262 9.30089 17.5144 9.30089 16.7597C9.30089 16.005 8.68908 15.3932 7.93438 15.3932C7.17968 15.3932 6.56787 16.005 6.56787 16.7597Z" fill="#515258"/>
<path d="M12.0339 7.29236C11.3804 7.66971 11.1564 8.50545 11.5338 9.15904C11.9111 9.81263 12.7469 10.0366 13.4005 9.65921C14.054 9.28187 14.278 8.44612 13.9006 7.79253C13.5233 7.13895 12.6875 6.91501 12.0339 7.29236Z" fill="#515258"/>
<path d="M0.931881 15.3932V18.1263C4.83753 18.1263 8.44649 16.0426 10.3993 12.6602L8.03246 11.2937C6.56784 13.8305 3.86112 15.3932 0.931891 15.3932H0.931881ZM0.931881 18.1263C1.68658 18.1263 2.29839 17.5144 2.29839 16.7597C2.29839 16.005 1.68658 15.3932 0.931881 15.3932C0.177181 15.3932 -0.434631 16.005 -0.434631 16.7597C-0.434631 17.5144 0.177181 18.1263 0.931881 18.1263ZM10.3993 12.6602C10.7767 12.0066 10.5527 11.1709 9.89914 10.7935C9.24555 10.4162 8.4098 10.6401 8.03246 11.2937C7.65511 11.9473 7.87904 12.7831 8.53263 13.1604C9.18622 13.5377 10.022 13.3138 10.3993 12.6602Z" fill="#515258"/>
<path d="M6.39795 16.6617C7.05154 16.2843 7.27548 15.4486 6.89812 14.795C6.52078 14.1414 5.68503 13.9174 5.03144 14.2948C4.37785 14.6721 4.15391 15.5079 4.53127 16.1615C4.90861 16.8151 5.74436 17.039 6.39795 16.6617Z" fill="#515258"/>
<path d="M10.3993 12.6603L8.03249 11.2938C6.07967 14.6762 6.07967 18.8434 8.03249 22.2258L10.3993 20.8593C8.93472 18.3225 8.93472 15.1971 10.3993 12.6603ZM8.03247 11.2938C7.65513 11.9474 7.87906 12.7831 8.53265 13.1605C9.18624 13.5378 10.022 13.3139 10.3993 12.6603C10.7767 12.0067 10.5527 11.171 9.89916 10.7936C9.24557 10.4163 8.40982 10.6402 8.03247 11.2938ZM8.03247 22.2258C8.40982 22.8794 9.24557 23.1033 9.89916 22.726C10.5527 22.3486 10.7767 21.5129 10.3993 20.8593C10.022 20.2057 9.18624 19.9818 8.53265 20.3591C7.87906 20.7365 7.65512 21.5722 8.03247 22.2258Z" fill="#515258"/>
<path d="M6.56787 16.7597C6.56787 17.5144 7.17968 18.1262 7.93438 18.1262C8.68908 18.1262 9.30089 17.5144 9.30089 16.7597C9.30089 16.005 8.68908 15.3932 7.93438 15.3932C7.17968 15.3932 6.56787 16.005 6.56787 16.7597Z" fill="#515258"/>
<path d="M8.03244 22.2257L10.3993 20.8592C8.44648 17.4769 4.83751 15.3932 0.931868 15.3932V18.1262C3.8611 18.1262 6.56783 19.689 8.03244 22.2257H8.03244ZM10.3993 20.8592C10.022 20.2057 9.18622 19.9817 8.53263 20.3591C7.87904 20.7364 7.6551 21.5722 8.03246 22.2258C8.4098 22.8793 9.24555 23.1033 9.89914 22.7259C10.5527 22.3486 10.7767 21.5128 10.3993 20.8592ZM0.931881 15.3932C0.177181 15.3932 -0.434631 16.005 -0.434631 16.7597C-0.434631 17.5144 0.177181 18.1262 0.931881 18.1262C1.68658 18.1262 2.29839 17.5144 2.29839 16.7597C2.29839 16.005 1.68658 15.3932 0.931881 15.3932Z" fill="#515258"/>
<path d="M6.39795 16.8578C5.74436 16.4805 4.90861 16.7044 4.53127 17.358C4.15392 18.0116 4.37785 18.8474 5.03144 19.2247C5.68502 19.602 6.52077 19.3781 6.89812 18.7245C7.27546 18.0709 7.05153 17.2352 6.39795 16.8578Z" fill="#515258"/>
<path d="M7.08117 15.6744C6.42758 15.2971 5.59184 15.521 5.21449 16.1746C4.83715 16.8282 5.06108 17.6639 5.71466 18.0413C6.36825 18.4186 7.204 18.1947 7.58135 17.5411C7.95869 16.8875 7.73476 16.0518 7.08117 15.6744Z" fill="#515258"/>
<path d="M10.3994 20.8593L8.03256 22.2258C9.98539 25.6082 13.5943 27.6918 17.5 27.6918V24.9588C14.5708 24.9588 11.864 23.3961 10.3994 20.8593H10.3994ZM8.03255 22.2258C8.4099 22.8794 9.24565 23.1033 9.89923 22.726C10.5528 22.3486 10.7768 21.5129 10.3994 20.8593C10.0221 20.2057 9.18631 19.9817 8.53272 20.3591C7.87914 20.7364 7.6552 21.5722 8.03255 22.2258ZM17.5 27.6918C18.2547 27.6918 18.8665 27.08 18.8665 26.3253C18.8665 25.5706 18.2547 24.9588 17.5 24.9588C16.7453 24.9588 16.1335 25.5706 16.1335 26.3253C16.1335 27.08 16.7453 27.6918 17.5 27.6918Z" fill="#515258"/>
<path d="M12.0339 26.2272C12.6875 26.6045 13.5233 26.3806 13.9006 25.727C14.278 25.0734 14.054 24.2377 13.4005 23.8603C12.7469 23.483 11.9111 23.7069 11.5338 24.3605C11.1564 25.0141 11.3804 25.8498 12.0339 26.2272Z" fill="#515258"/>
<path d="M8.03254 30.4248L10.3994 31.7913C12.3522 28.4089 12.3522 24.2417 10.3994 20.8593L8.03254 22.2258C9.49716 24.7626 9.49716 27.888 8.03254 30.4248ZM10.3994 31.7913C10.7767 31.1377 10.5528 30.302 9.89923 29.9246C9.24564 29.5473 8.4099 29.7712 8.03255 30.4248C7.65521 31.0784 7.87913 31.9141 8.53272 32.2915C9.18631 32.6688 10.0221 32.4449 10.3994 31.7913ZM10.3994 20.8593C10.0221 20.2057 9.18631 19.9817 8.53272 20.3591C7.87913 20.7364 7.6552 21.5722 8.03255 22.2258C8.4099 22.8794 9.24564 23.1033 9.89923 22.726C10.5528 22.3486 10.7768 21.5129 10.3994 20.8593Z" fill="#515258"/>
<path d="M-6.16871 11.2937L-8.53556 12.6602C-6.58274 16.0426 -2.97378 18.1263 0.931868 18.1263V15.3933C-1.99736 15.3933 -4.70409 13.8305 -6.1687 11.2937H-6.16871ZM-8.53556 12.6602C-8.15822 13.3138 -7.32247 13.5378 -6.66888 13.1604C-6.0153 12.7831 -5.79135 11.9473 -6.16871 11.2937C-6.54605 10.6401 -7.3818 10.4162 -8.03539 10.7936C-8.68898 11.1709 -8.91292 12.0066 -8.53556 12.6602ZM0.931868 18.1263C1.68657 18.1263 2.29838 17.5145 2.29838 16.7598C2.29838 16.0051 1.68657 15.3932 0.931868 15.3932C0.177168 15.3932 -0.434645 16.0051 -0.434645 16.7598C-0.434645 17.5145 0.177168 18.1263 0.931868 18.1263Z" fill="#515258"/>
<path d="M0.931864 18.1262V15.3932C-2.97378 15.3932 -6.58275 17.4769 -8.53557 20.8592L-6.16871 22.2258C-4.7041 19.689 -1.99738 18.1262 0.931849 18.1262H0.931864ZM0.931864 15.3932C0.177163 15.3932 -0.434649 16.005 -0.434649 16.7597C-0.434649 17.5144 0.177163 18.1262 0.931864 18.1262C1.68656 18.1262 2.29837 17.5144 2.29837 16.7597C2.29837 16.005 1.68656 15.3932 0.931864 15.3932ZM-8.53557 20.8592C-8.91291 21.5128 -8.68899 22.3486 -8.0354 22.7259C-7.38181 23.1033 -6.54606 22.8793 -6.16871 22.2258C-5.79137 21.5722 -6.0153 20.7364 -6.66889 20.3591C-7.32248 19.9817 -8.15822 20.2057 -8.53557 20.8592Z" fill="#515258"/>
<path d="M3.29873 24.9587L5.66559 23.5922C4.68918 21.901 2.88469 20.8592 0.931868 20.8592V23.5922C1.90827 23.5922 2.81052 24.1131 3.29872 24.9587H3.29873ZM5.6656 23.5922C5.28825 22.9387 4.4525 22.7147 3.79892 23.0921C3.14533 23.4694 2.92139 24.3052 3.29874 24.9588C3.67609 25.6123 4.51184 25.8363 5.16542 25.4589C5.81901 25.0816 6.04295 24.2458 5.6656 23.5922ZM0.931881 20.8592C0.177181 20.8592 -0.434631 21.471 -0.434631 22.2257C-0.434631 22.9804 0.177181 23.5923 0.931881 23.5923C1.68658 23.5923 2.29839 22.9804 2.29839 22.2257C2.29839 21.471 1.68658 20.8592 0.931881 20.8592Z" fill="#41424B"/>
<path d="M3.66504 21.5916C3.01145 21.2142 2.1757 21.4382 1.79836 22.0917C1.42101 22.7453 1.64494 23.5811 2.29853 23.9584C2.95211 24.3358 3.78786 24.1118 4.16521 23.4582C4.54255 22.8047 4.31862 21.9689 3.66504 21.5916Z" fill="#41424B"/>
<path d="M3.29872 27.6918L5.66557 29.0583C6.64197 27.3671 6.64197 25.2835 5.66557 23.5923L3.29872 24.9588C3.78692 25.8044 3.78692 26.8462 3.29872 27.6918V27.6918ZM5.66558 29.0583C6.04292 28.4047 5.819 27.569 5.16541 27.1916C4.51182 26.8143 3.67607 27.0382 3.29873 27.6918C2.92138 28.3454 3.14531 29.1811 3.7989 29.5585C4.45249 29.9358 5.28823 29.7119 5.66558 29.0583ZM5.66558 23.5923C5.28823 22.9387 4.45249 22.7148 3.7989 23.0921C3.14531 23.4695 2.92137 24.3052 3.29873 24.9588C3.67607 25.6124 4.51182 25.8363 5.16541 25.459C5.819 25.0816 6.04293 24.2459 5.66558 23.5923Z" fill="#41424B"/>
<path d="M0.931974 23.5923V20.8593C-1.02085 20.8593 -2.82533 21.9011 -3.80174 23.5923L-1.43489 24.9588C-0.946687 24.1132 -0.0444446 23.5923 0.931961 23.5923H0.931974ZM0.931974 20.8593C0.177274 20.8593 -0.434538 21.4711 -0.434538 22.2258C-0.434538 22.9805 0.177274 23.5923 0.931974 23.5923C1.68667 23.5923 2.29848 22.9805 2.29848 22.2258C2.29848 21.4711 1.68667 20.8593 0.931974 20.8593ZM-3.80174 23.5923C-4.17909 24.2459 -3.95516 25.0816 -3.30157 25.459C-2.64798 25.8363 -1.81223 25.6124 -1.43489 24.9588C-1.05754 24.3052 -1.28147 23.4695 -1.93506 23.0921C-2.58865 22.7148 -3.4244 22.9387 -3.80174 23.5923Z" fill="#41424B"/>
<path d="M-1.80102 21.5916C-2.45461 21.9689 -2.67854 22.8047 -2.30119 23.4583C-1.92384 24.1118 -1.0881 24.3358 -0.434509 23.9584C0.219079 23.5811 0.443017 22.7453 0.0656617 22.0917C-0.311683 21.4382 -1.14743 21.2142 -1.80102 21.5916Z" fill="#41424B"/>
<path d="M8.03244 22.2257L10.3993 20.8592C8.44648 17.4769 4.83751 15.3932 0.931868 15.3932V18.1262C3.8611 18.1262 6.56783 19.689 8.03244 22.2257H8.03244ZM10.3993 20.8592C10.022 20.2057 9.18622 19.9817 8.53263 20.3591C7.87904 20.7364 7.6551 21.5722 8.03246 22.2258C8.4098 22.8793 9.24555 23.1033 9.89914 22.7259C10.5527 22.3486 10.7767 21.5128 10.3993 20.8592ZM0.931881 15.3932C0.177181 15.3932 -0.434631 16.005 -0.434631 16.7597C-0.434631 17.5144 0.177181 18.1262 0.931881 18.1262C1.68658 18.1262 2.29839 17.5144 2.29839 16.7597C2.29839 16.005 1.68658 15.3932 0.931881 15.3932Z" fill="#515258"/>
<path d="M6.39795 16.8578C5.74436 16.4805 4.90861 16.7044 4.53127 17.358C4.15392 18.0116 4.37785 18.8474 5.03144 19.2247C5.68502 19.602 6.52077 19.3781 6.89812 18.7245C7.27546 18.0709 7.05153 17.2352 6.39795 16.8578Z" fill="#515258"/>
<path d="M8.03254 30.4248L10.3994 31.7913C12.3522 28.4089 12.3522 24.2417 10.3994 20.8593L8.03254 22.2258C9.49716 24.7626 9.49716 27.888 8.03254 30.4248ZM10.3994 31.7913C10.7767 31.1377 10.5528 30.302 9.89923 29.9246C9.24564 29.5473 8.4099 29.7712 8.03255 30.4248C7.65521 31.0784 7.87913 31.9141 8.53272 32.2915C9.18631 32.6688 10.0221 32.4449 10.3994 31.7913ZM10.3994 20.8593C10.0221 20.2057 9.18631 19.9817 8.53272 20.3591C7.87913 20.7364 7.6552 21.5722 8.03255 22.2258C8.4099 22.8794 9.24564 23.1033 9.89923 22.726C10.5528 22.3486 10.7768 21.5129 10.3994 20.8593Z" fill="#515258"/>
<path d="M0.931864 18.1262V15.3932C-2.97378 15.3932 -6.58275 17.4769 -8.53557 20.8592L-6.16871 22.2258C-4.7041 19.689 -1.99738 18.1262 0.931849 18.1262H0.931864ZM0.931864 15.3932C0.177163 15.3932 -0.434649 16.005 -0.434649 16.7597C-0.434649 17.5144 0.177163 18.1262 0.931864 18.1262C1.68656 18.1262 2.29837 17.5144 2.29837 16.7597C2.29837 16.005 1.68656 15.3932 0.931864 15.3932ZM-8.53557 20.8592C-8.91291 21.5128 -8.68899 22.3486 -8.0354 22.7259C-7.38181 23.1033 -6.54606 22.8793 -6.16871 22.2258C-5.79137 21.5722 -6.0153 20.7364 -6.66889 20.3591C-7.32248 19.9817 -8.15822 20.2057 -8.53557 20.8592Z" fill="#515258"/>
</g>
</svg>
