<svg width="16" height="16" viewBox="0 0 16 16" fill="none" xmlns="http://www.w3.org/2000/svg">
  <style>
   path { fill: #18181c; }
    @media (prefers-color-scheme: dark) {
      path { fill: #fafafb; }
    }
  </style>
  <path fill-rule="evenodd" clip-rule="evenodd" d="M13.8005 4.43881C13.9689 4.60667 13.9689 4.88281 13.8005 5.05066C13.6321 5.21841 13.355 5.21841 13.1866 5.05066C13.1063 4.96969 13.0613 4.86032 13.0613 4.74649C13.0613 4.50908 13.2573 4.31373 13.4956 4.31373C13.6097 4.31373 13.7194 4.35858 13.8007 4.4385L13.8005 4.43881ZM11.144 3.05557C11.469 3.12042 11.7868 3.21705 12.0929 3.34404C12.3067 3.43264 12.4098 3.68177 12.3215 3.89598C12.2564 4.05357 12.1022 4.15686 11.932 4.15686C11.8766 4.15686 11.8218 4.14593 11.7706 4.12468H11.7699C11.5182 4.02019 11.2571 3.94039 10.9901 3.88636C10.983 3.88511 10.976 3.88372 10.9689 3.88216C10.7086 3.83094 10.444 3.80449 10.1787 3.80314H10.157C9.55525 3.80311 8.9974 3.48046 8.69643 2.95838C8.69457 2.95512 8.69256 2.9517 8.69085 2.94828C8.41476 2.47192 8.0484 2.05418 7.6124 1.71864C5.76509 0.298255 3.11886 0.647354 1.70076 2.4985C1.62099 2.60277 1.4971 2.66402 1.36598 2.66402C1.13459 2.66402 0.944188 2.47324 0.944188 2.24139C0.944188 2.14845 0.974787 2.05805 1.03122 1.98428C1.03555 1.9787 1.04005 1.97326 1.04454 1.96783C1.44705 1.44686 1.94707 1.00945 2.51657 0.680113C4.9358 -0.719775 8.02953 0.110703 9.42733 2.53483V2.53561L9.43089 2.54166C9.5787 2.7938 9.84707 2.95172 10.1389 2.95822H10.1576C10.489 2.95821 10.8196 2.99081 11.1446 3.05557H11.144ZM0.67283 8.45836C0.676396 8.45154 0.680426 8.44472 0.684456 8.43805C0.827969 8.18169 0.827557 7.86816 0.683371 7.61219C0.679186 7.60521 0.675311 7.59824 0.671435 7.59126C0.00656651 6.43169 -0.172659 5.05471 0.173233 3.76359C0.222503 3.57977 0.390363 3.45098 0.580677 3.45098C0.812084 3.45098 1.0025 3.64139 1.0025 3.87279C1.0025 3.90967 0.997668 3.94637 0.988121 3.98199C0.699833 5.05837 0.84957 6.20632 1.40432 7.17275C1.40897 7.1805 1.41347 7.18841 1.41781 7.19647C1.70823 7.71134 1.7077 8.34263 1.41641 8.85703C1.41099 8.86679 1.40541 8.87656 1.39921 8.88601C1.12792 9.36144 0.951704 9.88512 0.880389 10.4278C0.576414 12.7374 2.20201 14.8552 4.51166 15.1593V15.1603C4.72047 15.1877 4.8783 15.3677 4.8783 15.5783C4.8783 15.5967 4.87709 15.6151 4.87469 15.6333C4.84451 15.8624 4.63137 16.0263 4.40222 15.9965H4.403C3.74396 15.9096 3.10846 15.6937 2.53296 15.361C0.114174 13.966 -0.716369 10.8773 0.67283 8.45836ZM1.40074 8.95671C1.41159 8.94731 1.42159 8.93738 1.43066 8.92702L1.43183 8.92564C1.4224 8.93648 1.41202 8.94686 1.40074 8.95671ZM6.37038 15.9069C6.13977 15.9684 5.89909 15.8306 5.83721 15.6017C5.77534 15.3727 5.91431 15.1336 6.14508 15.0722C6.18022 15.0633 6.21634 15.0588 6.2526 15.0588C6.49145 15.0588 6.688 15.2539 6.688 15.491C6.688 15.684 6.55773 15.8547 6.37054 15.9069H6.37038ZM10.1918 13.0646C9.8942 13.0646 9.61775 13.2215 9.46538 13.4767C9.46352 13.4803 9.4615 13.4838 9.45948 13.4872C9.29333 13.7745 9.0993 14.0447 8.88021 14.294C8.95045 14.214 8.9506 14.2144 8.88021 14.294C8.87586 14.299 8.87151 14.3038 8.86701 14.3085C8.65131 14.552 8.41262 14.7743 8.15427 14.9722C7.97035 15.1133 7.70278 15.0783 7.56149 14.8946C7.42031 14.711 7.45538 14.4439 7.63918 14.3027C7.85889 14.1344 8.06149 13.9448 8.24408 13.7369C8.17634 13.8145 8.17618 13.8135 8.24408 13.7369C8.24937 13.731 8.25465 13.7252 8.25962 13.7198C8.43272 13.5204 8.5867 13.3053 8.71955 13.0772C8.72204 13.0725 8.72468 13.068 8.72732 13.0634C9.02924 12.5424 9.58819 12.2205 10.191 12.2206C10.7462 12.2206 11.2961 12.1113 11.809 11.8991C13.9618 11.0087 14.9867 8.54775 14.1026 6.39622C14.1007 6.39219 14.0989 6.388 14.0971 6.38381C14.0769 6.33368 14.0665 6.28014 14.0665 6.2261C14.0665 5.9945 14.2574 5.80392 14.4893 5.80392C14.6583 5.80392 14.8117 5.90504 14.8781 6.06016C15.1331 6.67502 15.2644 7.33407 15.2644 7.99959C15.2644 10.7975 12.9928 13.0657 10.1909 13.0657L10.1918 13.0646ZM9.78198 4.68988C9.89366 4.6777 10.0058 4.671 10.1183 4.66976C10.1298 4.66964 10.1413 4.66959 10.1528 4.66959C12.0073 4.66959 13.5334 6.19027 13.5334 8.03828C13.5334 9.88628 12.0073 11.407 10.1528 11.407C10.0292 11.407 9.90565 11.4002 9.78275 11.3867C9.08878 11.3336 8.42969 11.7126 8.12867 12.338C7.59046 13.56 6.3722 14.3529 5.033 14.3529C3.17842 14.3529 1.65233 12.8322 1.65233 10.9841C1.65233 10.2599 1.88666 9.55468 2.32036 8.97361C2.7029 8.40151 2.69777 7.65111 2.30747 7.08426C2.2671 7.02928 2.22844 6.97321 2.19149 6.91607C1.84081 6.37269 1.6543 5.74008 1.6543 5.09402C1.6543 3.2461 3.18024 1.72549 5.03467 1.72549C6.37321 1.72549 7.59097 2.51776 8.12945 3.73893C8.43043 4.36369 9.08882 4.74249 9.78229 4.68988H9.78198ZM2.93055 12.2941C3.38007 13.0818 4.21353 13.5686 5.11259 13.5686C6.49479 13.5686 7.63218 12.418 7.63218 11.0196C7.63218 9.62126 6.49479 8.47059 5.11259 8.47059C4.67032 8.47059 4.23574 8.5884 3.85273 8.81213C2.65589 9.51145 2.23965 11.0831 2.93055 12.2941ZM7.96618 9.31365C8.41568 10.1014 9.24918 10.5882 10.1483 10.5882C11.5305 10.5882 12.6679 9.43758 12.6679 8.03922C12.6679 6.64087 11.5305 5.4902 10.1483 5.4902C9.70602 5.4902 9.27149 5.60799 8.88852 5.83168C7.69163 6.53093 7.27531 8.10259 7.96618 9.31365ZM5.11512 7.60784C6.49607 7.60741 7.63218 6.45687 7.63218 5.05882C7.63218 3.66048 6.49559 2.5098 5.11435 2.5098C3.7331 2.5098 2.59652 3.66048 2.59652 5.05882C2.59652 5.05898 2.59652 5.05914 2.59652 5.05929C2.59686 6.4575 3.73341 7.60784 5.1145 7.60784C5.1147 7.60784 5.11491 7.60784 5.11512 7.60784Z" />
</svg>
