<svg width="16" height="16" viewBox="0 0 16 16" fill="none" xmlns="http://www.w3.org/2000/svg">
<path fill-rule="evenodd" clip-rule="evenodd" d="M14.2005 4.43881C14.3689 4.60667 14.3689 4.88281 14.2005 5.05066C14.0321 5.21841 13.7551 5.21841 13.5867 5.05066C13.5064 4.96969 13.4613 4.86032 13.4613 4.74649C13.4613 4.50908 13.6573 4.31373 13.8956 4.31373C14.0097 4.31373 14.1194 4.35858 14.2007 4.4385L14.2005 4.43881ZM11.544 3.05557C11.869 3.12042 12.1868 3.21705 12.493 3.34404C12.7067 3.43264 12.8099 3.68177 12.7215 3.89598C12.6564 4.05357 12.5022 4.15686 12.332 4.15686C12.2767 4.15686 12.2218 4.14593 12.1707 4.12468H12.1699C11.9183 4.02019 11.6571 3.94039 11.3902 3.88636C11.383 3.88511 11.3761 3.88372 11.3689 3.88216C11.1086 3.83094 10.844 3.80449 10.5787 3.80314H10.557C9.95528 3.80311 9.39743 3.48046 9.09645 2.95838C9.09459 2.95512 9.09258 2.9517 9.09088 2.94828C8.81479 2.47192 8.44842 2.05418 8.01243 1.71864C6.16511 0.298255 3.51888 0.647354 2.10078 2.4985C2.02102 2.60277 1.89713 2.66402 1.76601 2.66402C1.53462 2.66402 1.34421 2.47324 1.34421 2.24139C1.34421 2.14845 1.37481 2.05805 1.43124 1.98428C1.43558 1.9787 1.44007 1.97326 1.44457 1.96783C1.84708 1.44686 2.34709 1.00945 2.91659 0.680113C5.33582 -0.719775 8.42955 0.110703 9.82735 2.53483V2.53561L9.83091 2.54166C9.97872 2.7938 10.2471 2.95172 10.5389 2.95822H10.5576C10.889 2.95821 11.2196 2.99081 11.5447 3.05557H11.544ZM1.07285 8.45836C1.07642 8.45154 1.08045 8.44472 1.08448 8.43805C1.22799 8.18169 1.22758 7.86816 1.0834 7.61219C1.07921 7.60521 1.07533 7.59824 1.07146 7.59126C0.406591 6.43169 0.227365 5.05471 0.573258 3.76359C0.622528 3.57977 0.790388 3.45098 0.980701 3.45098C1.21211 3.45098 1.40253 3.64139 1.40253 3.87279C1.40253 3.90967 1.39769 3.94637 1.38814 3.98199C1.09986 5.05837 1.24959 6.20632 1.80435 7.17275C1.809 7.1805 1.81349 7.18841 1.81783 7.19647C2.10825 7.71134 2.10772 8.34263 1.81644 8.85703C1.81101 8.86679 1.80543 8.87656 1.79923 8.88601C1.52795 9.36144 1.35173 9.88512 1.28041 10.4278C0.976438 12.7374 2.60203 14.8552 4.91168 15.1593V15.1603C5.1205 15.1877 5.27833 15.3677 5.27833 15.5783C5.27833 15.5967 5.27712 15.6151 5.27472 15.6333C5.24454 15.8624 5.0314 16.0263 4.80225 15.9965H4.80302C4.14398 15.9096 3.50849 15.6937 2.93298 15.361C0.514199 13.966 -0.316345 10.8773 1.07285 8.45836ZM1.80076 8.95671C1.81162 8.94731 1.82161 8.93738 1.83069 8.92702L1.83185 8.92564C1.82243 8.93648 1.81204 8.94686 1.80076 8.95671ZM6.77041 15.9069C6.53979 15.9684 6.29912 15.8306 6.23724 15.6017C6.17536 15.3727 6.31433 15.1336 6.54511 15.0722C6.58025 15.0633 6.61636 15.0588 6.65262 15.0588C6.89147 15.0588 7.08802 15.2539 7.08802 15.491C7.08802 15.684 6.95775 15.8547 6.77057 15.9069H6.77041ZM10.5918 13.0646C10.2942 13.0646 10.0178 13.2215 9.8654 13.4767C9.86354 13.4803 9.86152 13.4838 9.8595 13.4872C9.69335 13.7745 9.49933 14.0447 9.28024 14.294C9.35047 14.214 9.35063 14.2144 9.28024 14.294C9.27589 14.299 9.27154 14.3038 9.26703 14.3085C9.05133 14.552 8.81265 14.7743 8.5543 14.9722C8.37037 15.1133 8.1028 15.0783 7.96152 14.8946C7.82034 14.711 7.85541 14.4439 8.03921 14.3027C8.25892 14.1344 8.46152 13.9448 8.64411 13.7369C8.57636 13.8145 8.5762 13.8135 8.64411 13.7369C8.64939 13.731 8.65467 13.7252 8.65964 13.7198C8.83274 13.5204 8.98672 13.3053 9.11957 13.0772C9.12206 13.0725 9.1247 13.068 9.12734 13.0634C9.42926 12.5424 9.98822 12.2205 10.591 12.2206C11.1463 12.2206 11.6961 12.1113 12.209 11.8991C14.3618 11.0087 15.3867 8.54775 14.5026 6.39622C14.5007 6.39219 14.4989 6.388 14.4972 6.38381C14.4769 6.33368 14.4666 6.28014 14.4666 6.2261C14.4666 5.9945 14.6574 5.80392 14.8893 5.80392C15.0583 5.80392 15.2117 5.90504 15.2781 6.06016C15.5332 6.67502 15.6644 7.33407 15.6644 7.99959C15.6644 10.7975 13.3929 13.0657 10.5909 13.0657L10.5918 13.0646ZM10.182 4.68988C10.2937 4.6777 10.4058 4.671 10.5183 4.66976C10.5298 4.66964 10.5413 4.66959 10.5529 4.66959C12.4073 4.66959 13.9334 6.19027 13.9334 8.03828C13.9334 9.88628 12.4073 11.407 10.5529 11.407C10.4292 11.407 10.3057 11.4002 10.1828 11.3867C9.4888 11.3336 8.82971 11.7126 8.52869 12.338C7.99048 13.56 6.77223 14.3529 5.43303 14.3529C3.57845 14.3529 2.05235 12.8322 2.05235 10.9841C2.05235 10.2599 2.28669 9.55468 2.72038 8.97361C3.10292 8.40151 3.0978 7.65111 2.7075 7.08426C2.66713 7.02928 2.62846 6.97321 2.59151 6.91607C2.24083 6.37269 2.05432 5.74008 2.05432 5.09402C2.05432 3.2461 3.58026 1.72549 5.43469 1.72549C6.77324 1.72549 7.991 2.51776 8.52947 3.73893C8.83046 4.36369 9.48885 4.74249 10.1823 4.68988H10.182ZM3.33058 12.2941C3.78009 13.0818 4.61356 13.5686 5.51262 13.5686C6.89482 13.5686 8.03221 12.418 8.03221 11.0196C8.03221 9.62126 6.89482 8.47059 5.51262 8.47059C5.07034 8.47059 4.63577 8.5884 4.25276 8.81213C3.05592 9.51145 2.63968 11.0831 3.33058 12.2941ZM8.3662 9.31365C8.8157 10.1014 9.6492 10.5882 10.5483 10.5882C11.9305 10.5882 13.0679 9.43758 13.0679 8.03922C13.0679 6.64087 11.9305 5.4902 10.5483 5.4902C10.106 5.4902 9.67152 5.60799 9.28854 5.83168C8.09165 6.53093 7.67533 8.10259 8.3662 9.31365ZM5.51515 7.60784C6.89609 7.60741 8.03221 6.45687 8.03221 5.05882C8.03221 3.66048 6.89561 2.5098 5.51437 2.5098C4.13312 2.5098 2.99654 3.66048 2.99654 5.05882C2.99654 5.05898 2.99654 5.05914 2.99654 5.05929C2.99688 6.4575 4.13343 7.60784 5.51453 7.60784C5.51473 7.60784 5.51493 7.60784 5.51515 7.60784Z" fill="black"/>
</svg>
